<svg id="consultation" xmlns="http://www.w3.org/2000/svg" viewBox="0 0 32.871 32.873">
  <path id="Path_1020" data-name="Path 1020" d="M195.711,8.554l3.9-3.253h5.11V0H192V5.3h3.711ZM193.06,4.242V1.06h10.6V4.242h-4.433l-2.459,2.049V4.242Zm0,0" transform="translate(-179.275)"/>
  <path id="Path_1021" data-name="Path 1021" d="M224,32h1.06v1.06H224Zm0,0" transform="translate(-209.155 -29.879)"/>
  <path id="Path_1022" data-name="Path 1022" d="M256,32h4.242v1.06H256Zm0,0" transform="translate(-239.034 -29.879)"/>
  <path id="Path_1023" data-name="Path 1023" d="M336,32h1.06v1.06H336Zm0,0" transform="translate(-313.732 -29.879)"/>
  <path id="Path_1024" data-name="Path 1024" d="M26.989,143.859l-.429-4.292a3.714,3.714,0,0,0,3.13-3.661v-6.892H27.57v-.733a1.907,1.907,0,0,0-1.033-1.7,3.169,3.169,0,0,0,1.033-2.339v-1.06a3.181,3.181,0,1,0-6.362,0v1.06a3.184,3.184,0,0,0,2.1,2.986l-2.846,2.846H17.485a2.126,2.126,0,0,0-1.526-1.9l-2.173-.62v-.947a3.17,3.17,0,0,0,1.06-2.365v-1.06a3.181,3.181,0,1,0-6.362,0v1.06a3.172,3.172,0,0,0,1.06,2.365v.948l-2.173.62a2.129,2.129,0,0,0-1.538,2.039v1.981H3.711v3.181h1.06v8.483H0v1.06H32.872v-1.06Zm-4.721-8.483v-2.431l3.757-3.757a1.661,1.661,0,0,0,.469-1.017.864.864,0,0,1,.015.11v6.565a1.593,1.593,0,0,1-1.591,1.591H20.677v-1.06Zm-1.591,4.242h2.7l.424,4.242H20.677Zm3.767,0H25.5l.424,4.242H24.868Zm3.125-4.772v-4.772h1.06v5.832a2.654,2.654,0,0,1-2.651,2.651h-5.3V137.5h4.241A2.654,2.654,0,0,0,27.57,134.845Zm-5.3-10.6v-1.06a2.121,2.121,0,1,1,4.242,0v1.06a2.121,2.121,0,1,1-4.242,0ZM20.9,131.134l3.537-3.537a.595.595,0,0,1,.841.841l-3.757,3.757H15.906a.53.53,0,0,1,0-1.06ZM9.543,123.181a2.121,2.121,0,1,1,4.242,0v1.06a2.121,2.121,0,1,1-4.242,0Zm2.121,4.242a3.166,3.166,0,0,0,1.06-.186v.57a1.356,1.356,0,0,1-1.06.676,1.356,1.356,0,0,1-1.06-.676v-.57A3.166,3.166,0,0,0,11.664,127.423Zm-4.772,2.79a1.065,1.065,0,0,1,.769-1.02l2.184-.624a2.309,2.309,0,0,0,1.819.974,2.308,2.308,0,0,0,1.819-.974l2.184.624a1.057,1.057,0,0,1,.746.88h-.507a1.593,1.593,0,0,0-1.591,1.591,1.569,1.569,0,0,0,.1.53H6.892Zm-2.121,3.042H21.208v1.06H4.772Zm1.06,4.242H7.423v-1.06H5.832v-1.06H19.617v1.06H8.483v1.06H19.617v6.362H18.354l-1.06-2.121H8.155l-1.06,2.121H5.832Zm11.336,6.362H8.281l.53-1.06h7.828Zm0,0" transform="translate(0 -112.047)"/>
</svg>
