<?xml version="1.0" encoding="utf-8"?>
<!-- Generator: Adobe Illustrator 22.0.1, SVG Export Plug-In . SVG Version: 6.00 Build 0)  -->
<svg version="1.1" id="Capa_1" xmlns="http://www.w3.org/2000/svg" xmlns:xlink="http://www.w3.org/1999/xlink" x="0px" y="0px"
	 viewBox="0 0 38.9 32.9" style="enable-background:new 0 0 38.9 32.9;" xml:space="preserve">
<style type="text/css">
	.st0{opacity:0.99;}
</style>
<g id="pay_1_" class="st0">
	<g id="Group_1232" transform="translate(0 19.438)">
		<g id="Group_1231">
			<path id="Path_1266" d="M32.5,2.4l-2.2-2.2c-0.2-0.2-0.6-0.3-0.8-0.1l-9.5,7l-3.4-1.6l2.9-0.3c0.3,0,0.6-0.3,0.6-0.6V1.8
				c0-0.4-0.3-0.6-0.6-0.6h-3.2l-5.4-0.6c-0.1,0-0.2,0-0.3,0.1L6.9,2.2H0v1.3h7.1c0.1,0,0.2,0,0.3-0.1L11,1.8l5.3,0.5h2.7V4
				l-2.4,0.3l-3.4-0.4c-0.4,0-0.7,0.2-0.7,0.6c0,0.3,0.1,0.5,0.4,0.6l7.1,3.3c0.2,0.1,0.5,0.1,0.6-0.1l9.3-6.9l1.3,1.3l-10.7,9.4
				h-2.9L7.3,8.4c-0.1,0-0.1,0-0.2,0H0v1.3h6.9l10.2,3.8c0.1,0,0.1,0,0.2,0h3.3c0.2,0,0.3-0.1,0.4-0.2l11.4-10l0,0
				C32.8,3.1,32.8,2.7,32.5,2.4z"/>
		</g>
	</g>
	<g id="Group_1234" transform="translate(19.529 7.908)">
		<g id="Group_1233">
			<path id="Path_1267" d="M14.7,8.1l-3.4-3.5c-0.1-0.1-0.3-0.2-0.4-0.2L4,3.8H1.3l0.1-1.9L4,1.3l3.5,0.8c0.1,0,0.1,0,0.2,0l3.4-0.4
				l-0.2-1.3L7.6,0.8L4.1,0C4,0,3.9,0,3.8,0L0.7,0.7C0.4,0.7,0.2,1,0.2,1.2L0,4.4c0,0,0,0,0,0c0,0.4,0.3,0.6,0.6,0.6h3.3l6.6,0.6
				L14,9.2c0.1,0.1,0.3,0.2,0.5,0.2H19V8.1H14.7z"/>
		</g>
	</g>
	<g id="Group_1236" transform="translate(14.378 0)">
		<g id="Group_1235">
			<path id="Path_1268" d="M18.7,2.7c-0.1-0.1-0.2-0.1-0.2-0.1L7.6,0C7.4,0,7.2,0,7.1,0.1L0,5.3l0.8,1l6.8-5l10.5,2.5l5.7,4.4l0.8-1
				L18.7,2.7z"/>
		</g>
	</g>
	<g id="Group_1238" transform="translate(18.318 3.878)">
		<g id="Group_1237">
			<path id="Path_1269" d="M4.4,0.1C4.2,0,4,0,3.9,0.1L0,2l0.6,1.1l3.6-1.8l2.9,1.2l0.5-1.2L4.4,0.1z"/>
		</g>
	</g>
	<g id="Group_1240" transform="translate(12.832 8.355)">
		<g id="Group_1239">
			<path id="Path_1270" d="M3.2,2.7L2.1,2.5C1.6,2.4,1.3,2.2,1.3,1.9s0.4-0.6,1.1-0.6h0.5c0.6,0,1.1,0.3,1.1,0.6v0.2h1.3V1.9
				C5,0.7,4-0.1,2.8,0c0,0,0,0,0,0H2.3C1.2-0.1,0.1,0.7,0,1.9c0,0,0,0,0,0c0.1,1,0.9,1.8,1.9,1.8L3,3.9C3.5,4,3.9,4.2,3.9,4.5
				S3.4,5.1,2.8,5.1H2.3c-0.6,0-1.1-0.3-1.1-0.6V4.4H0v0.2c0.1,1.2,1.2,2,2.3,1.9h0.5C4,6.5,5,5.7,5.2,4.6C5.1,3.5,4.2,2.7,3.2,2.7z
				"/>
		</g>
	</g>
	<g id="Group_1242" transform="translate(8.983 5.147)">
		<g id="Group_1241">
			<path id="Path_1271" d="M11.5,7.1c-0.4,2.8-3,4.8-5.8,4.4c-2.8-0.4-4.8-3-4.4-5.8c0.4-2.8,3-4.8,5.8-4.4c1.7,0.2,3.2,1.3,4,2.9
				l1.2-0.5c-1.5-3.2-5.3-4.6-8.5-3.1C0.5,2.1-0.9,5.9,0.6,9.1c1.5,3.2,5.3,4.6,8.5,3.1c2-0.9,3.4-2.8,3.6-5L11.5,7.1z"/>
		</g>
	</g>
	<g id="Group_1244" transform="translate(14.757 7.713)">
		<g id="Group_1243">
			<rect id="Rectangle_1767" x="0" y="0" width="1.3" height="1.3"/>
		</g>
	</g>
</g>
</svg>
