<?xml version="1.0" encoding="utf-8"?>
<!-- Generator: Adobe Illustrator 22.0.1, SVG Export Plug-In . SVG Version: 6.00 Build 0)  -->
<svg version="1.1" id="Capa_1" xmlns="http://www.w3.org/2000/svg" xmlns:xlink="http://www.w3.org/1999/xlink" x="0px" y="0px"
	 viewBox="0 0 37.1 37.1" style="enable-background:new 0 0 37.1 37.1;" xml:space="preserve">
<g id="clipboard">
	<g id="Group_1230" transform="translate(0)">
		<path id="Path_1264" d="M27.7,11c-0.9,0-1.8,0.1-2.7,0.4V2.7h-7.3L18.2,0H6.9l0.5,2.7H0v34.4h25v-7.7c0.9,0.3,1.8,0.4,2.7,0.4
			c5.2-0.1,9.4-4.3,9.3-9.5C36.9,15.2,32.8,11,27.7,11L27.7,11z M16.3,1.6l-0.8,3.8h-6L8.8,1.6H16.3z M23.4,35.5H1.6V4.3h6.1
			l0.5,2.7h8.6l0.5-2.7h6.1V12c-2.1,1.1-3.7,2.9-4.5,5.1H3.7v1.6h14.8c-0.3,1.6-0.2,3.2,0.3,4.7H3.7v1.6h15.8c0.9,1.7,2.3,3,4,3.9
			V35.5z M27.7,28.1c-4.3,0-7.8-3.5-7.8-7.8s3.5-7.8,7.8-7.8s7.8,3.5,7.8,7.8C35.5,24.6,32,28.1,27.7,28.1L27.7,28.1z"/>
		<rect id="Rectangle_1765" x="3.7" y="10.9" width="17.7" height="1.6"/>
		<rect id="Rectangle_1766" x="3.7" y="29.4" width="17.7" height="1.6"/>
		<path id="Path_1265" d="M31.7,17.4l-1.1-1.1l-2.8,2.8l-2.8-2.8l-1.1,1.1l2.8,2.8l-2.9,2.9l1.1,1.1l2.9-2.9l2.9,2.9l1.1-1.1
			l-2.9-2.9L31.7,17.4z"/>
	</g>
</g>
</svg>
