<svg xmlns="http://www.w3.org/2000/svg" viewBox="0 0 58.8 58.8"><defs><style>.cls-1,.cls-2{fill:#fff;}.cls-1{fill-opacity:0;}.cls-2{stroke:#000;stroke-miterlimit:10;stroke-width:0.1px;}</style></defs><title>icoDatostitularB</title><g id="Capa_2" data-name="Capa 2"><g id="Capa_1-2" data-name="Capa 1"><g id="Capa_2-2" data-name="Capa 2"><g id="Capa_7" data-name="Capa 7"><rect class="cls-1" width="58.8" height="58.8"/></g><g id="Capa_4" data-name="Capa 4"><g id="customer"><g id="Group_1258" data-name="Group 1258"><g id="Group_1257" data-name="Group 1257"><path id="Path_1308" data-name="Path 1308" class="cls-2" d="M10.24,16.7V43.6H48.56V16.7ZM46.37,41.41H12.43V18.89H46.21V41.41Z"/></g></g><g id="Group_1260" data-name="Group 1260"><g id="Group_1259" data-name="Group 1259"><rect id="Rectangle_1787" data-name="Rectangle 1787" class="cls-2" x="32.78" y="36.92" width="11.26" height="2.19"/></g></g><g id="Group_1262" data-name="Group 1262"><g id="Group_1261" data-name="Group 1261"><rect id="Rectangle_1788" data-name="Rectangle 1788" class="cls-2" x="32.78" y="32.42" width="11.26" height="2.19"/></g></g><g id="Group_1264" data-name="Group 1264"><g id="Group_1263" data-name="Group 1263"><rect id="Rectangle_1789" data-name="Rectangle 1789" class="cls-2" x="32.78" y="27.93" width="11.26" height="2.19"/></g></g><g id="Group_1266" data-name="Group 1266"><g id="Group_1265" data-name="Group 1265"><rect id="Rectangle_1790" data-name="Rectangle 1790" class="cls-2" x="32.78" y="23.44" width="6.88" height="2.19"/></g></g><g id="Group_1268" data-name="Group 1268"><g id="Group_1267" data-name="Group 1267"><rect id="Rectangle_1791" data-name="Rectangle 1791" class="cls-2" x="41.84" y="23.44" width="2.19" height="2.19"/></g></g><g id="Group_1270" data-name="Group 1270"><g id="Group_1269" data-name="Group 1269"><path id="Path_1309" data-name="Path 1309" class="cls-2" d="M26.38,31.05A5.61,5.61,0,0,0,19,22.6h0a5.5,5.5,0,0,0-.69,7.75l.06.07.63.63a7.85,7.85,0,0,0-4.22,7v1.09H30.6v-1A8.17,8.17,0,0,0,26.38,31.05Zm-3.75-7.67a3.45,3.45,0,1,1-3.44,3.46v0A3.58,3.58,0,0,1,22.63,23.38ZM17.15,37a5.65,5.65,0,0,1,6.57-4.38A5.71,5.71,0,0,1,28.1,37Z"/></g></g></g></g></g></g></g></svg>