<svg xmlns="http://www.w3.org/2000/svg" viewBox="0 0 58.8 58.8"><defs><style>.cls-1,.cls-2{fill:#006341;}.cls-1{opacity:0;}</style></defs><title>icoIngresos</title><g id="Capa_2" data-name="Capa 2"><g id="Capa_7" data-name="Capa 7"><rect class="cls-1" width="58.8" height="58.8"/></g><g id="Capa_6" data-name="Capa 6"><path id="portfolio" class="cls-2" d="M46.88,16.4H37.07V15.28a3.18,3.18,0,0,0-3.22-3.23H25.31a3.27,3.27,0,0,0-3.22,3.23V16.4H12.28a1,1,0,0,0-1,1h0V41.05a3.17,3.17,0,0,0,3.22,3.22H44.78A3.17,3.17,0,0,0,48,41.05V17.52a1,1,0,0,0-1.12-1.12ZM24.33,15.28a1.1,1.1,0,0,1,1.12-1.12H34a1.1,1.1,0,0,1,1.12,1.12V16.4H24.33ZM45.48,18.5,42.12,28.58a1.05,1.05,0,0,1-1,.7h-6V28.16A1.1,1.1,0,0,0,34,27H25.31a1.1,1.1,0,0,0-1.12,1.12v1.12h-6a1.05,1.05,0,0,1-1-.7L13.82,18.5ZM32.87,29.28v2.1H26.43v-2.1Zm13,11.77a1.1,1.1,0,0,1-1.12,1.12H14.52a1.1,1.1,0,0,1-1.12-1.12V24.1l1.68,5.18a3.34,3.34,0,0,0,3.09,2.24h6v1.12a1.1,1.1,0,0,0,1.12,1.12h8.54A1.1,1.1,0,0,0,35,32.64V31.52h6a3.15,3.15,0,0,0,3.08-2.24l1.68-5.18Z"/></g></g></svg>