<?xml version="1.0" encoding="utf-8"?>
<!-- Generator: Adobe Illustrator 22.0.1, SVG Export Plug-In . SVG Version: 6.00 Build 0)  -->
<svg version="1.1" id="Capa_1" xmlns="http://www.w3.org/2000/svg" xmlns:xlink="http://www.w3.org/1999/xlink" x="0px" y="0px"
	 viewBox="0 0 101.4 90" style="enable-background:new 0 0 101.4 90;" xml:space="preserve">
<style type="text/css">
	.st0{fill:#FF0606;}
</style>
<g id="alert" transform="translate(0 -19.066)">
	<g id="Grupo_3361" transform="translate(0 19.066)">
		<g id="Grupo_3360" transform="translate(0 0)">
			<path id="Trazado_1821" class="st0" d="M99.9,76.9L58.2,5.2C56.3,1.9,53.5,0,50.6,0c-3,0-5.8,1.9-7.5,5.2L1.6,76.9
				C-0.3,80.2-0.5,83.5,1,86c1.4,2.5,4.4,4,8.3,4h82.9c3.7,0,6.7-1.4,8.3-4C101.9,83.5,101.7,80.2,99.9,76.9z M95.9,83.5
				c-0.6,1-1.9,1.4-3.8,1.4H9.2c-1.9,0-3.4-0.6-3.8-1.4c-0.6-1-0.4-2.4,0.6-4.1L47.4,7.7C48.4,6,49.6,5,50.6,5s2.3,1,3.2,2.6
				l41.5,71.8C96.3,81.1,96.5,82.6,95.9,83.5L95.9,83.5z"/>
		</g>
	</g>
	<g id="Grupo_3363" transform="translate(48.12 42.674)">
		<g id="Grupo_3362" transform="translate(0 0)">
			<path id="Trazado_1822" class="st0" d="M2.5,0C1.2,0,0,1,0,2.4c0,0,0,0.1,0,0.1v33.3c0,1.4,1.2,2.5,2.6,2.5
				c1.4,0,2.4-1.1,2.5-2.5V2.5C5.1,1.2,4,0,2.6,0C2.6,0,2.6,0,2.5,0z"/>
		</g>
	</g>
	<g id="Grupo_3365" transform="translate(46.202 86.656)">
		<g id="Grupo_3364">
			<circle id="Elipse_85" class="st0" cx="4.4" cy="4.4" r="4.4"/>
		</g>
	</g>
</g>
</svg>
