<?xml version="1.0" encoding="utf-8"?>
<!-- Generator: Adobe Illustrator 22.0.1, SVG Export Plug-In . SVG Version: 6.00 Build 0)  -->
<svg version="1.1" id="Capa_1" xmlns="http://www.w3.org/2000/svg" xmlns:xlink="http://www.w3.org/1999/xlink" x="0px" y="0px"
	 viewBox="0 0 161 161" style="enable-background:new 0 0 161 161;" xml:space="preserve">
<style type="text/css">
	.st0{fill:#FF0606;}
</style>
<g>
	<path class="st0" d="M106.2,35.3H40.1v82.5h33.8c-0.2-1.3-0.3-2.6-0.3-4c0-0.3,0-0.6,0-0.8H56.4V83h46.4v6c1.7,0.3,3.3,0.7,4.8,1.3
		V78.2h-56v34.7h-6.8V40.1h10.1v26.4h47.8V40.1h1.6l11.8,11.8v43.9c1.9,1.9,3.6,4.1,4.8,6.5V49.9L106.2,35.3z M97.9,61.7H59.7V40.1
		h38.1V61.7z"/>
	<path class="st0" d="M111.1,122.6l-9.2-9.2l9.2-9.2c1-1,1-2.6,0-3.6c-0.5-0.5-1.1-0.8-1.8-0.8c0,0,0,0,0,0c-0.7,0-1.3,0.3-1.8,0.8
		l-9.2,9.2l-9.2-9.2c-1-1-2.6-1-3.6,0c-1,1-1,2.6,0,3.6l9.2,9.2l-9.1,9.1c-0.5,0.5-0.8,1.1-0.8,1.8c0,0.7,0.2,1.3,0.7,1.8
		c0.5,0.5,1.1,0.8,1.8,0.8c0.7,0,1.3-0.2,1.9-0.8l9.2-9.2l9.1,9.1c0.5,0.5,1.1,0.8,1.8,0.8c0,0,0.1,0,0.1,0c0.7,0,1.3-0.2,1.7-0.7
		c1-1,1.1-2.6,0.1-3.6C111.1,122.7,111.1,122.6,111.1,122.6z"/>
</g>
</svg>
