<?xml version="1.0" encoding="utf-8"?>
<!-- Generator: Adobe Illustrator 22.0.1, SVG Export Plug-In . SVG Version: 6.00 Build 0)  -->
<svg version="1.1" id="Capa_1" xmlns="http://www.w3.org/2000/svg" xmlns:xlink="http://www.w3.org/1999/xlink" x="0px" y="0px"
	 viewBox="0 0 134.6 134.9" style="enable-background:new 0 0 134.6 134.9;" xml:space="preserve">
<style type="text/css">
	.st0{fill:#3FAE2A;}
</style>
<path class="st0" d="M34.4,107.7c0.4,0,0.8-0.1,1.1-0.3c0.9-0.6,1.8-1.2,2.7-1.9c0.9-0.7,1.7-1.3,2.6-2c0.8-0.7,1.6-1.4,2.4-2.2
	c0.8-0.8,1.6-1.5,2.3-2.3c0.7-0.8,1.5-1.6,2.1-2.5c0.7-0.8,1.4-1.7,2-2.6c0.6-0.9,1.3-1.8,1.8-2.7c0.6-0.9,1.1-1.9,1.7-2.8
	c0.5-1,1-1.9,1.5-3c0.5-1,0.9-2,1.3-3.1l0.3-0.8c0.4-1-0.2-2.2-1.2-2.5c-1-0.4-2.2,0.1-2.6,1.1l-0.3,0.7c-0.4,1-0.8,1.9-1.2,2.8
	c-0.4,0.9-0.9,1.8-1.4,2.7c-0.5,0.9-1,1.8-1.6,2.6c-0.5,0.9-1.1,1.7-1.7,2.5c-0.6,0.8-1.2,1.6-1.9,2.4c-0.7,0.8-1.3,1.5-2,2.3
	c-0.7,0.7-1.4,1.5-2.1,2.2c-0.7,0.7-1.5,1.4-2.3,2c-0.8,0.7-1.6,1.3-2.4,1.9c-0.8,0.6-1.6,1.2-2.5,1.8c-0.7,0.5-1.1,1.4-0.8,2.3
	C32.8,107.1,33.5,107.7,34.4,107.7L34.4,107.7z"/>
<path class="st0" d="M83.6,59.4c-0.1-0.5-0.2-0.9-0.3-1.3c-0.1-0.4-0.3-0.9-0.5-1.3c-0.2-0.4-0.4-0.8-0.6-1.2
	c-0.2-0.4-0.4-0.8-0.7-1.2c-0.3-0.4-0.5-0.7-0.8-1.1c-0.3-0.3-0.6-0.7-0.9-1c-0.3-0.3-0.7-0.6-1-0.9c-0.4-0.3-0.7-0.6-1.1-0.8
	c-0.4-0.2-0.8-0.5-1.2-0.7c-0.4-0.2-0.8-0.4-1.2-0.6c-0.4-0.2-0.9-0.3-1.3-0.5c-0.4-0.1-0.9-0.3-1.3-0.3c-0.5-0.1-0.9-0.2-1.4-0.2
	c-1-0.1-1.9-0.1-2.9,0c-0.5,0-0.9,0.1-1.4,0.2c-0.5,0.1-0.9,0.2-1.3,0.3c-0.4,0.1-0.9,0.3-1.3,0.5c-0.4,0.2-0.8,0.4-1.2,0.6
	c-0.4,0.2-0.8,0.5-1.1,0.7c-0.4,0.2-0.7,0.5-1.1,0.8c-0.3,0.3-0.7,0.6-1,0.9c-0.3,0.3-0.6,0.7-0.9,1c-0.3,0.4-0.6,0.7-0.8,1.1
	c-0.2,0.4-0.5,0.8-0.7,1.2c-0.2,0.4-0.4,0.8-0.6,1.2c-0.2,0.4-0.3,0.9-0.5,1.3c-0.1,0.4-0.3,0.9-0.3,1.3c-0.1,0.5-0.2,0.9-0.2,1.4
	c0,0.5-0.1,0.9-0.1,1.4c0,1.1,0,2.2-0.1,3.3c-0.1,1.1-0.2,2.1-0.3,3.2c-0.1,1.1-0.3,2.2-0.5,3.2c-0.2,1.1,0.5,2.1,1.6,2.3
	c0.1,0,0.3,0,0.4,0c1,0,1.8-0.7,2-1.6c0.2-1.1,0.4-2.3,0.5-3.4c0.1-1.1,0.3-2.3,0.3-3.5c0.1-1.2,0.1-2.3,0.1-3.5
	c0-0.7,0.1-1.4,0.2-2c0.1-0.3,0.1-0.6,0.2-1c0.1-0.3,0.2-0.6,0.3-0.9c0.1-0.3,0.3-0.6,0.4-0.9c0.2-0.3,0.3-0.6,0.5-0.8
	c0.2-0.3,0.4-0.5,0.6-0.8c0.2-0.2,0.4-0.5,0.6-0.7c0.2-0.2,0.5-0.4,0.7-0.6c0.5-0.4,1-0.8,1.6-1.1c0.9-0.5,1.8-0.8,2.8-1
	c0.3-0.1,0.7-0.1,1-0.2c0.7-0.1,1.4-0.1,2,0c0.3,0,0.7,0.1,1,0.2c0.3,0.1,0.6,0.2,1,0.2c0.3,0.1,0.6,0.2,0.9,0.3
	c0.6,0.3,1.2,0.6,1.7,0.9c0.3,0.2,0.5,0.4,0.8,0.6c0.2,0.2,0.5,0.4,0.7,0.6c0.2,0.2,0.4,0.5,0.6,0.7c0.2,0.3,0.4,0.5,0.6,0.8
	c0.2,0.3,0.3,0.5,0.5,0.8c0.2,0.3,0.3,0.6,0.4,0.9s0.2,0.6,0.3,0.9c0.1,0.3,0.2,0.6,0.2,1l0.1,0.4c0.2,1.1,1.2,1.8,2.3,1.6
	c1.1-0.2,1.8-1.2,1.6-2.3L83.6,59.4z"/>
<path class="st0" d="M70.7,97.9c-0.5,1-0.2,2.2,0.8,2.7c1,0.5,2.2,0.2,2.7-0.8c0.6-1.1,1-1.8,1.5-2.9c0.6-1.2,1.1-2.3,1.6-3.5
	s1-2.4,1.5-3.6c0.5-1.2,0.9-2.5,1.3-3.7c0.4-1.2,0.8-2.5,1.1-3.8c0.3-1.3,0.6-2.6,0.9-3.9c0.3-1.3,0.5-2.6,0.7-3.9
	c0.2-1.3,0.4-2.7,0.5-4c0.1-0.7,0.1-1.3,0.2-2c0.1-1.1-0.7-2.1-1.8-2.2c-1.1-0.1-2.1,0.7-2.2,1.8c0,0.6-0.1,1.3-0.2,1.9
	c-0.1,1.3-0.3,2.5-0.5,3.8c-0.2,1.3-0.4,2.5-0.7,3.7c-0.3,1.2-0.5,2.5-0.9,3.7c-0.3,1.2-0.7,2.4-1.1,3.6c-0.4,1.2-0.8,2.4-1.2,3.5
	c-0.4,1.2-0.9,2.3-1.4,3.4c-0.5,1.1-1,2.2-1.6,3.4C71.6,96.3,71.3,96.9,70.7,97.9z"/>
<path class="st0" d="M58.4,119.2c0.5,0,1-0.2,1.4-0.6c0.9-0.9,1.8-1.8,2.7-2.7c0.9-0.9,1.7-1.9,2.6-2.9c0.8-1,1.6-2,2.4-3
	c0.8-1,1.6-2.1,2.3-3.1c0.6-0.9,0.4-2.2-0.5-2.8c-0.9-0.6-2.2-0.4-2.8,0.5c-0.7,1-1.4,2-2.2,2.9c-0.7,1-1.5,1.9-2.3,2.8
	c-0.8,0.9-1.6,1.8-2.4,2.7c-0.8,0.9-1.7,1.8-2.6,2.6c-0.6,0.6-0.8,1.4-0.5,2.2C56.9,118.7,57.6,119.2,58.4,119.2L58.4,119.2z"/>
<path class="st0" d="M49.4,116.5c0.5,0,0.9-0.2,1.3-0.5c1-0.8,1.9-1.6,2.8-2.5c0.9-0.9,1.5-1.4,2.3-2.3c1.8-1.8,3.4-3.7,5-5.7
	l0.4-0.5c0.7-0.9,1.6-2,2.2-2.9c0.7-1,1.4-2.1,2.1-3.2s1.3-2.2,1.9-3.3c0.6-1.1,1.2-2.2,1.7-3.4c0.5-1.1,1.1-2.3,1.5-3.5
	c0.5-1.2,0.9-2.4,1.4-3.6l0.1-0.4c0.3-0.7,0.1-1.4-0.4-2c-0.5-0.6-1.2-0.8-1.9-0.7c-0.7,0.1-1.3,0.7-1.5,1.3L68.2,84
	c-0.4,1.1-0.8,2.3-1.3,3.4c-0.5,1.1-0.9,2.2-1.4,3.3c-0.5,1.1-1.1,2.1-1.6,3.2c-0.6,1-1.2,2.1-1.8,3.1c-0.6,1-1.3,2-1.9,3
	c-0.6,0.8-1.4,1.8-2,2.7l-0.4,0.5c-1.5,1.9-3,3.7-4.7,5.4c-0.8,0.8-1.3,1.3-2.2,2.1c-0.9,0.8-1.7,1.6-2.7,2.3
	c-0.6,0.5-0.9,1.4-0.6,2.2C47.9,116,48.6,116.5,49.4,116.5L49.4,116.5z"/>
<path class="st0" d="M71.4,69.8c-0.1,1.2-0.3,2.5-0.5,3.7c-0.1,0.8-0.3,1.7-0.5,2.4c-0.2,1.1,0.5,2.1,1.6,2.4c0.1,0,0.3,0,0.4,0
	c1,0,1.8-0.7,2-1.6c0.2-0.8,0.3-1.7,0.5-2.5c0.2-1.3,0.4-2.6,0.6-3.9c0.2-1.3,0.3-2.6,0.3-4c0.1-1.3,0.1-2.7,0.1-4
	c0-0.2,0-0.4,0-0.6c0-0.2-0.1-0.4-0.1-0.6c0-0.2-0.1-0.4-0.2-0.6c-0.1-0.2-0.1-0.4-0.2-0.5c-0.2-0.4-0.3-0.7-0.6-1
	c-0.1-0.2-0.2-0.3-0.3-0.5c-0.1-0.1-0.3-0.3-0.4-0.4c-0.1-0.1-0.3-0.3-0.4-0.4c-0.1-0.1-0.3-0.2-0.5-0.4c-0.2-0.1-0.3-0.2-0.5-0.3
	c-0.2-0.1-0.3-0.2-0.5-0.3s-0.4-0.1-0.6-0.2c-0.2-0.1-0.4-0.1-0.6-0.1c-0.2,0-0.4-0.1-0.6-0.1c-0.4,0-0.8,0-1.2,0
	c-0.4,0-0.8,0.1-1.2,0.2c-0.2,0.1-0.4,0.1-0.5,0.2c-0.2,0.1-0.4,0.2-0.5,0.3c-0.2,0.1-0.3,0.2-0.5,0.3c-0.2,0.1-0.3,0.2-0.5,0.4
	c-0.2,0.1-0.3,0.3-0.4,0.4c-0.1,0.1-0.3,0.3-0.4,0.5c-0.2,0.3-0.4,0.6-0.6,0.9c-0.1,0.2-0.2,0.4-0.3,0.5c-0.1,0.2-0.1,0.4-0.2,0.6
	C64.1,60.6,64,60.8,64,61c0,0.2-0.1,0.4-0.1,0.6c0,0.2,0,0.4,0,0.6c0,1.1,0.9,2,2,2c1.1,0,2-0.9,2-2c0-0.1,0-0.1,0-0.2l0.2-0.7
	c0,0,0.1-0.2,0.1-0.2l0.2-0.3l0.3-0.3l0.3-0.2l0.4-0.1c0.1,0,0.1,0,0.2,0c0.1,0,0.1,0,0.6,0l0.4,0.1l0.3,0.2l1.1-1.7l-0.8,1.9
	l0.1,0.2l0.2,0.3l0.1,0.2l0.1,0.4c0,0,0,0.2,0,0.2c0,0.1,0,0.1,0,0.2c0,1.3,0,2.5-0.1,3.8C71.7,67.3,71.6,68.5,71.4,69.8z"/>
<path class="st0" d="M63.1,71.9c-0.2,1.1-0.7,3.2-0.9,4.2c-0.3,1.1-0.6,2.2-0.9,3.3c-0.3,1.1-0.7,2.2-1.1,3.2
	c-0.4,1.1-0.8,2.1-1.3,3.1l-0.2,0.5c-0.3,0.7-0.2,1.4,0.2,2s1.1,0.9,1.8,0.8c0.7-0.1,1.3-0.5,1.6-1.2l0.2-0.5
	c0.5-1.1,0.9-2.2,1.4-3.3c0.4-1.1,0.8-2.3,1.2-3.4c0.4-1.2,0.7-2.3,1-3.5c0.2-1,0.8-3.2,1-4.5c0.1-0.7-0.1-1.4-0.7-1.9
	c-0.5-0.5-1.3-0.6-2-0.4C63.7,70.6,63.3,71.2,63.1,71.9L63.1,71.9z"/>
<path class="st0" d="M41.4,112.6c0.4,0,0.8-0.1,1.2-0.4c1-0.7,1.9-1.4,2.8-2.2c0.9-0.8,1.8-1.5,2.7-2.4c0.9-0.8,1.7-1.6,2.5-2.5
	c0.8-0.9,1.6-1.7,2.4-2.6c0.8-0.9,1.5-1.8,2.2-2.8c0.7-1,1.4-1.9,2.1-2.9c0.3-0.5,0.6-0.9,0.9-1.4c0.4-0.6,0.5-1.4,0.2-2.1
	c-0.3-0.7-1-1.1-1.8-1.1c-0.8,0-1.4,0.4-1.8,1.1c-0.3,0.4-0.6,0.9-0.9,1.3c-0.6,0.9-1.3,1.8-1.9,2.7c-0.7,0.9-1.4,1.8-2.1,2.6
	c-0.7,0.9-1.5,1.7-2.2,2.5c-0.8,0.8-1.6,1.6-2.4,2.3c-0.8,0.8-1.7,1.5-2.5,2.2c-0.9,0.7-1.7,1.4-2.6,2.1c-0.7,0.5-1,1.4-0.7,2.2
	C39.8,112.1,40.6,112.6,41.4,112.6L41.4,112.6z"/>
<path class="st0" d="M28.4,102c0.4,0,0.7-0.1,1-0.3c0.8-0.5,1.7-1,2.5-1.6c0.8-0.6,1.6-1.1,2.4-1.7c0.8-0.6,1.5-1.2,2.2-1.9
	c0.4-0.4,0.9-0.8,1.3-1.2c0.8-0.8,0.8-2,0.1-2.8c-0.8-0.8-2-0.8-2.8-0.1c-0.4,0.4-0.8,0.7-1.2,1.1c-0.7,0.6-1.3,1.2-2,1.7
	c-0.7,0.5-1.4,1.1-2.1,1.6c-0.7,0.5-1.5,1-2.3,1.4c-0.8,0.5-1.1,1.4-0.9,2.3C26.7,101.4,27.5,102,28.4,102L28.4,102z"/>
<path class="st0" d="M49.8,60.2c-1.1,0-2,0.9-2,2c0,1,0,1.9-0.1,2.9c-0.1,0.9-0.2,1.9-0.3,2.8c-0.1,0.9-0.3,1.8-0.5,2.7
	c-0.2,0.9-0.4,1.8-0.6,2.7c-0.2,0.9-0.5,1.8-0.8,2.6c-0.3,0.9-0.6,1.7-1,2.5c-0.3,0.8-0.7,1.6-1.1,2.5c-0.4,0.8-0.8,1.6-1.3,2.4
	c-0.4,0.8-0.9,1.5-1.4,2.3c-0.4,0.5-0.7,1-1.1,1.6c-0.4,0.6-0.5,1.3-0.2,2c0.3,0.7,0.9,1.1,1.6,1.2s1.4-0.2,1.8-0.8
	c0.4-0.6,0.8-1.1,1.2-1.7c0.5-0.8,1.1-1.6,1.5-2.5c0.5-0.8,1-1.7,1.4-2.6c0.4-0.9,0.8-1.8,1.2-2.7c0.4-0.9,0.7-1.8,1.1-2.8
	c0.3-0.9,0.6-1.9,0.9-2.9c0.3-1,0.5-1.9,0.7-2.9c0.2-1,0.4-2,0.5-3c0.1-1,0.2-2,0.3-3.1c0.1-1,0.1-2.1,0.1-3.1
	C51.8,61.1,50.9,60.2,49.8,60.2z"/>
<path class="st0" d="M52.9,48.2c-0.5,0.5-0.9,1.1-1.3,1.7c-0.4,0.6-0.8,1.2-1.1,1.8c-0.3,0.6-0.6,1.1-0.8,1.7c-0.4,1,0,2.2,1.1,2.6
	c0.2,0.1,0.5,0.2,0.8,0.2c0.8,0,1.5-0.5,1.8-1.2c0.2-0.5,0.4-0.9,0.7-1.4c0.3-0.5,0.6-1,0.9-1.5c0.3-0.5,0.7-0.9,1-1.4
	s0.8-0.9,1.2-1.3c0.4-0.4,0.8-0.8,1.3-1.2c0.4-0.4,0.9-0.7,1.4-1c0.5-0.3,1-0.6,1.5-0.9c0.5-0.3,1-0.5,1.6-0.8
	c1.1-0.5,2.2-0.8,3.4-1c0.6-0.1,1.2-0.2,1.8-0.3c1.2-0.1,2.5-0.1,3.7,0c0.6,0.1,1.2,0.2,1.8,0.3c0.6,0.1,1.2,0.3,1.7,0.4
	c0.2,0.1,0.4,0.1,0.6,0.2c0.7,0.3,1.4,0.1,2-0.3c0.6-0.5,0.8-1.2,0.7-1.9c-0.1-0.7-0.7-1.3-1.4-1.5c-0.3-0.1-0.5-0.2-0.8-0.3
	c-1.4-0.4-2.8-0.7-4.3-0.9c-1.5-0.2-3-0.2-4.5,0c-0.7,0.1-1.5,0.2-2.2,0.3c-0.7,0.1-1.4,0.3-2.1,0.5c-0.7,0.2-1.4,0.5-2,0.7
	c-0.7,0.3-1.3,0.6-1.9,0.9c-0.6,0.3-1.2,0.7-1.8,1.1c-0.6,0.4-1.2,0.8-1.7,1.3c-0.5,0.4-1.1,0.9-1.6,1.4
	C53.8,47.1,53.3,47.7,52.9,48.2z"/>
<path class="st0" d="M87.5,70c-0.1,1.3-0.3,2.6-0.5,3.8C87,74.5,87,75,86.9,75.5c0,0.6-0.1,1.2-0.2,1.7c-0.2,0.7,0.1,1.5,0.6,1.9
	c0.5,0.5,1.3,0.6,2,0.4c0.7-0.2,1.2-0.8,1.3-1.6c0.1-0.7,0.2-1.4,0.3-2.2c0-0.4,0.1-0.9,0.1-1.4c0.2-1.3,0.3-2.7,0.5-4
	c0.1-1.3,0.2-2.7,0.3-4.1c0.1-1.4,0.1-2.7,0.1-4.1c0-0.8,0-1.5-0.1-2.3c-0.1-0.7-0.2-1.5-0.3-2.2c-0.1-0.7-0.3-1.4-0.5-2.1
	c-0.2-0.7-0.5-1.4-0.7-2c-0.3-0.7-0.6-1.3-0.9-1.9c-0.3-0.6-0.7-1.2-1.1-1.8c-0.4-0.6-0.8-1.1-1.3-1.7c-0.4-0.5-0.8-1-1.3-1.4
	c-0.5-0.5-1.2-0.7-1.9-0.5c-0.7,0.2-1.2,0.7-1.4,1.4c-0.2,0.7,0,1.4,0.5,1.9c0.4,0.4,0.7,0.8,1,1.2c0.4,0.4,0.7,0.9,1,1.4
	c0.3,0.5,0.6,1,0.9,1.5c0.3,0.5,0.5,1,0.8,1.6c0.2,0.5,0.4,1.1,0.6,1.7c0.2,0.6,0.3,1.1,0.4,1.7c0.1,0.6,0.2,1.2,0.3,1.8
	c0.1,0.6,0.1,1.2,0.1,1.8c0,1.3,0,2.6-0.1,3.9C87.7,67.5,87.7,68.8,87.5,70z"/>
<path class="st0" d="M68.5,120.3c0.6,0,1.1-0.2,1.5-0.7c0.9-1,1.7-1.9,2.5-2.9c0.8-1,1.6-2,2.4-3c0.8-1,1.5-2.1,2.2-3.1
	c0.4-0.6,0.8-1.2,1.2-1.8c0.3-0.5,0.6-1,0.9-1.5c0.7-1.1,1.3-2.2,2-3.3c0.6-1.1,1.2-2.3,1.8-3.4c0.6-1.2,1.1-2.3,1.6-3.5
	c0.5-1.2,1-2.4,1.5-3.6c0.5-1.2,0.9-2.4,1.3-3.7c0.4-1.1,0.7-2.2,1.1-3.3c0.3-1.1-0.3-2.2-1.4-2.5c-1.1-0.3-2.2,0.3-2.5,1.4
	c-0.3,1.1-0.6,2.1-1,3.2c-0.4,1.2-0.8,2.3-1.3,3.5c-0.4,1.2-0.9,2.3-1.4,3.4c-0.5,1.1-1,2.2-1.6,3.3c-0.5,1.1-1.1,2.2-1.7,3.3
	c-0.6,1.1-1.2,2.1-1.9,3.2c-0.3,0.5-0.6,0.9-0.9,1.4c-0.4,0.6-0.7,1.1-1.1,1.7c-0.7,1-1.4,2-2.1,3c-0.7,1-1.5,1.9-2.3,2.9
	c-0.8,0.9-1.6,1.9-2.4,2.8c-0.5,0.6-0.7,1.4-0.3,2.2C67,119.8,67.7,120.3,68.5,120.3L68.5,120.3z"/>
<path class="st0" d="M23.4,95.7c0.3,0,0.7-0.1,1-0.3c0.7-0.4,1.4-0.8,2.1-1.3c0.7-0.5,1.4-0.9,2-1.4c0.7-0.5,1.3-1,1.9-1.5
	c0.6-0.5,1.2-1.1,1.8-1.7c0.6-0.6,1.2-1.2,1.7-1.8c0.6-0.6,1.1-1.2,1.6-1.9c0.5-0.6,1-1.3,1.5-2c0.5-0.7,0.9-1.4,1.3-2.1
	c0.4-0.7,0.8-1.4,1.2-2.2s0.7-1.5,1.1-2.3s0.6-1.6,0.9-2.3c0.3-0.8,0.5-1.6,0.8-2.4c0.2-0.8,0.4-1.6,0.6-2.5
	c0.2-0.8,0.3-1.7,0.4-2.5c0.1-0.9,0.2-1.7,0.3-2.6c0.1-0.9,0.1-1.8,0.1-2.6c0-0.9,0-1.8,0.1-2.7c0.1-0.9,0.2-1.7,0.4-2.6
	c0.2-0.8,0.4-1.7,0.6-2.5s0.5-1.6,0.9-2.4c0.3-0.8,0.7-1.5,1.1-2.3c0.4-0.7,0.8-1.5,1.3-2.1c0.4-0.5,0.9-1.1,1.3-1.7l0.4-0.5
	c0.5-0.5,0.6-1.3,0.4-2c-0.2-0.7-0.8-1.2-1.6-1.3c-0.7-0.1-1.4,0.2-1.9,0.7l-0.4,0.5c-0.5,0.6-1.1,1.4-1.6,2c-0.5,0.8-1,1.6-1.5,2.5
	c-0.5,0.9-0.9,1.7-1.3,2.6c-0.4,0.9-0.7,1.8-1,2.8c-0.3,0.9-0.5,1.9-0.7,2.9c-0.2,1-0.4,2-0.5,3c-0.1,1-0.2,2-0.2,3.1
	c0,0.8,0,1.6-0.1,2.4c-0.1,0.8-0.1,1.6-0.2,2.3c-0.1,0.8-0.2,1.5-0.4,2.3c-0.2,0.8-0.3,1.5-0.5,2.2c-0.2,0.7-0.4,1.4-0.7,2.2
	c-0.3,0.7-0.5,1.4-0.8,2.1c-0.3,0.7-0.6,1.4-1,2c-0.3,0.7-0.7,1.3-1.1,2c-0.4,0.6-0.8,1.3-1.2,1.9c-0.4,0.6-0.9,1.2-1.3,1.8
	C32,83.9,31.5,84.5,31,85c-0.5,0.5-1,1.1-1.5,1.6c-0.5,0.5-1.1,1-1.6,1.5c-0.6,0.5-1.1,0.9-1.7,1.4c-0.6,0.4-1.2,0.9-1.8,1.3
	c-0.6,0.4-1.3,0.8-1.9,1.2c-0.8,0.4-1.2,1.4-1,2.3C21.7,95.1,22.5,95.7,23.4,95.7L23.4,95.7z"/>
<path class="st0" d="M93.9,52.1c0.3,0.8,0.6,1.6,0.9,2.4c0.2,0.7,0.4,1.4,0.6,2.1c0.1,0.7,0.7,1.3,1.3,1.5c0.7,0.2,1.4,0.1,2-0.4
	c0.5-0.5,0.8-1.2,0.6-1.9c-0.2-0.8-0.4-1.6-0.6-2.4c-0.3-0.9-0.6-1.9-1-2.8c-0.4-0.9-0.8-1.8-1.3-2.6c-0.5-0.9-1-1.7-1.5-2.5
	s-1.1-1.6-1.7-2.3c-0.6-0.7-1.3-1.5-1.9-2.1c-0.7-0.7-1.4-1.3-2.1-1.9c-0.7-0.6-1.5-1.2-2.3-1.7c-0.8-0.5-1.6-1-2.5-1.5
	c-0.9-0.5-1.7-0.9-2.6-1.3c-0.9-0.4-1.8-0.7-2.8-1c-0.9-0.3-1.9-0.5-2.9-0.7c-1-0.2-2-0.4-3-0.5c-2-0.2-4.1-0.2-6.1,0
	c-1,0.1-2,0.3-3,0.5c-1,0.2-1.9,0.4-2.9,0.7c-0.9,0.3-1.9,0.6-2.8,1c-0.9,0.4-1.8,0.8-2.6,1.3c-1,0.5-1.3,1.7-0.8,2.7
	c0.5,1,1.7,1.3,2.7,0.8c0.7-0.4,1.5-0.8,2.3-1.1c0.8-0.3,1.6-0.6,2.4-0.9c0.8-0.3,1.7-0.5,2.5-0.6c0.9-0.2,1.7-0.3,2.6-0.4
	c1.8-0.2,3.6-0.2,5.3,0c0.9,0.1,1.7,0.2,2.6,0.4c0.8,0.2,1.7,0.4,2.5,0.6s1.6,0.5,2.4,0.9c0.8,0.3,1.5,0.7,2.3,1.1s1.5,0.8,2.1,1.3
	c0.7,0.5,1.4,1,2,1.5c0.6,0.5,1.3,1.1,1.9,1.7c0.6,0.6,1.2,1.2,1.7,1.8c0.5,0.6,1,1.3,1.5,2s0.9,1.4,1.3,2.1
	C93.2,50.6,93.5,51.3,93.9,52.1z"/>
<path class="st0" d="M79.5,119.5c0.6,0,1.2-0.3,1.6-0.8c0.7-1,1.5-2,2.2-3c0.7-1,1.4-2,2-3.1c0.7-1,1.3-2.1,1.9-3.2
	c0.6-1.1,1.2-2.1,1.8-3.2c0.6-1.1,1.1-2.2,1.7-3.3c0.5-1.1,1.1-2.3,1.5-3.4c0.5-1.1,1-2.3,1.4-3.5c0.4-1.2,0.9-2.3,1.3-3.5
	c0.4-1.2,0.8-2.4,1.1-3.6c0.4-1.2,0.7-2.4,1-3.7c0.3-1.2,0.6-2.5,0.9-3.7c0.3-1.2,0.5-2.5,0.7-3.8c0.2-1.3,0.4-2.5,0.6-3.8
	c0.2-1.3,0.3-2.6,0.4-3.9c0.1-1.3,0.2-2.5,0.2-3.8c0-1.1-0.8-2-1.9-2.1h-0.1c-1.1,0-2,0.8-2,1.9c-0.1,1.3-0.1,2.4-0.2,3.6
	c-0.1,1.2-0.2,2.5-0.4,3.7c-0.2,1.2-0.3,2.4-0.5,3.7c-0.2,1.2-0.4,2.4-0.7,3.6c-0.2,1.2-0.5,2.4-0.8,3.6c-0.3,1.2-0.6,2.3-1,3.5
	c-0.3,1.2-0.7,2.3-1.1,3.4c-0.4,1.1-0.8,2.3-1.2,3.4c-0.4,1.1-0.9,2.2-1.4,3.3s-1,2.2-1.5,3.2c-0.5,1.1-1,2.1-1.6,3.2
	c-0.6,1-1.1,2.1-1.7,3.1c-0.6,1-1.2,2-1.8,3c-0.6,1-1.3,2-2,3c-0.7,1-1.4,1.9-2.1,2.9c-0.5,0.6-0.5,1.4-0.2,2.1
	C78.1,119.1,78.8,119.5,79.5,119.5L79.5,119.5z"/>
<path class="st0" d="M103.7,108.1c0.5,0.2,1,0.2,1.5,0c0.5-0.2,0.9-0.6,1.1-1.1c0.4-0.9,0.8-1.7,1.1-2.6c0.4-0.9,0.7-1.7,1.1-2.6
	c0.3-0.9,0.7-1.8,1-2.7c0.3-0.9,0.6-1.8,0.9-2.7c0.3-0.9,0.6-1.8,0.9-2.7c0.3-0.9,0.5-1.8,0.8-2.7c0.2-0.9,0.5-1.8,0.7-2.8
	c0.2-0.9,0.4-1.9,0.6-2.8c0.2-0.9,0.4-1.9,0.6-2.8c0.2-0.9,0.3-1.9,0.5-2.9c0.2-1,0.3-1.9,0.4-2.9c0.1-1,0.2-1.9,0.4-2.9
	c0.1-1,0.2-1.9,0.3-2.9l0.1-0.7c0.1-1.1-0.7-2.1-1.8-2.2c-1.1-0.1-2.1,0.7-2.2,1.8l-0.1,0.7c-0.1,0.9-0.2,1.9-0.3,2.8
	c-0.1,0.9-0.2,1.9-0.3,2.8c-0.1,0.9-0.3,1.9-0.4,2.8c-0.1,0.9-0.3,1.8-0.5,2.8s-0.4,1.8-0.6,2.7s-0.4,1.8-0.6,2.7
	c-0.2,0.9-0.4,1.8-0.7,2.7c-0.2,0.9-0.5,1.8-0.8,2.6c-0.3,0.9-0.5,1.8-0.8,2.6c-0.3,0.9-0.6,1.7-0.9,2.6c-0.3,0.9-0.6,1.7-1,2.6
	c-0.3,0.8-0.7,1.7-1,2.5c-0.3,0.8-0.7,1.7-1.1,2.5C102.3,106.5,102.7,107.7,103.7,108.1z"/>
<path class="st0" d="M115.7,57.5c-0.3-3.1-0.9-6.1-1.8-9c-0.1-0.3-0.2-0.7-0.3-1c-0.2-0.7-0.8-1.2-1.5-1.3c-0.7-0.1-1.4,0.1-1.9,0.6
	c-0.5,0.5-0.6,1.3-0.4,2l0.3,0.9c0.4,1.3,0.8,2.7,1,4c0.3,1.4,0.5,2.8,0.6,4.2c0.1,1.4,0.2,2.9,0.2,4.3c0,1.1,0.9,2,2,2
	c1.1,0,2-0.9,2-2C115.9,60.7,115.9,59.1,115.7,57.5z"/>
<path class="st0" d="M96.6,29.8c1,0.9,2,1.8,3,2.7c0.9,0.9,1.9,1.9,2.7,3c0.9,1,1.7,2.1,2.4,3.2c0.8,1.1,1.5,2.3,2.1,3.5
	c0.3,0.6,1,1,1.7,1c0.7,0,1.4-0.3,1.8-1c0.4-0.6,0.4-1.4,0.1-2c-0.7-1.3-1.5-2.6-2.3-3.8c-0.8-1.2-1.7-2.4-2.7-3.5
	c-0.9-1.1-1.9-2.2-3-3.3c-1-1-2.1-2-3.3-3c-1.1-0.9-2.3-1.8-3.5-2.7c-0.6-0.4-1.4-0.5-2-0.2c-0.7,0.3-1.1,1-1.1,1.7
	c0,0.7,0.3,1.4,0.9,1.8C94.5,28.1,95.6,28.9,96.6,29.8z"/>
<path class="st0" d="M59,21.6c0.8-0.2,1.6-0.4,2.4-0.6c1.4-0.3,2.8-0.5,4.2-0.6c2.9-0.3,5.7-0.3,8.6,0c1.4,0.1,2.8,0.4,4.2,0.6
	c1.3,0.3,2.7,0.6,4,1c1.1,0.3,2.3,0.8,3.4,1.2c1,0.4,2.2-0.1,2.6-1.1c0.4-1-0.1-2.2-1.1-2.6c-1.2-0.5-2.5-0.9-3.7-1.3
	c-1.5-0.5-2.9-0.8-4.4-1.1c-1.5-0.3-3-0.5-4.6-0.7c-3.1-0.3-6.3-0.3-9.4,0c-1.5,0.2-3.1,0.4-4.6,0.7c-0.9,0.2-1.7,0.4-2.6,0.6
	c-1.1,0.3-1.7,1.4-1.4,2.5C56.9,21.2,58,21.9,59,21.6L59,21.6z"/>
<path class="st0" d="M25,68.1c0.5,0.1,1.1,0,1.5-0.3s0.7-0.8,0.8-1.3c0.1-0.5,0.2-0.9,0.2-1.4c0.1-0.5,0.1-1,0.1-1.4
	c0-0.5,0-1,0-1.5c0-2.8,0.3-5.7,0.9-8.5c0.3-1.4,0.6-2.7,1-4s0.9-2.6,1.4-3.9c0.5-1.3,1.1-2.5,1.8-3.7c0.6-1.2,1.4-2.4,2.1-3.5
	c0.7-1.1,1.6-2.2,2.4-3.2c0.9-1,1.8-2,2.7-3c0.9-0.9,2-1.9,3-2.7c1-0.9,2.1-1.7,3.2-2.4c1.1-0.8,2.3-1.5,3.5-2.1
	c0.8-0.4,1.6-0.8,2.4-1.2c0.7-0.3,1.1-0.9,1.2-1.6c0.1-0.7-0.3-1.4-0.9-1.8c-0.6-0.4-1.4-0.5-2-0.1c-0.9,0.4-1.8,0.9-2.7,1.3
	c-1.3,0.7-2.6,1.5-3.8,2.3c-1.2,0.8-2.4,1.7-3.5,2.7c-1.1,0.9-2.2,1.9-3.3,3s-2,2.1-3,3.3c-0.9,1.1-1.8,2.3-2.7,3.5
	c-0.8,1.2-1.6,2.5-2.3,3.8c-0.7,1.3-1.4,2.7-1.9,4s-1.1,2.8-1.5,4.2C25.4,50,25,51.5,24.7,53c-0.3,1.5-0.5,3-0.7,4.6
	c-0.2,1.6-0.2,3.1-0.2,4.7c0,0.4,0,0.8,0,1.2c0,0.4-0.1,0.8-0.1,1.2c-0.1,0.4-0.1,0.8-0.2,1.2c-0.1,0.5,0,1.1,0.3,1.5
	C24,67.7,24.5,68,25,68.1z"/>
<path class="st0" d="M20.9,72.1c-0.2,0.3-0.4,0.6-0.6,0.9c-0.2,0.3-0.5,0.6-0.7,0.9c-0.2,0.3-0.5,0.6-0.7,0.8
	c-0.3,0.3-0.5,0.5-0.8,0.8c-0.3,0.3-0.6,0.5-0.8,0.7c-0.3,0.2-0.6,0.5-0.9,0.7c-0.3,0.2-0.6,0.4-0.9,0.6c-0.7,0.5-1.1,1.4-0.8,2.2
	c0.2,0.9,1,1.4,1.9,1.4c0.4,0,0.7-0.1,1.1-0.3c0.4-0.2,0.8-0.5,1.1-0.8c0.4-0.3,0.7-0.5,1.1-0.8c0.4-0.3,0.7-0.6,1-0.9
	c0.3-0.3,0.7-0.6,1-1c0.3-0.3,0.6-0.7,0.9-1c0.3-0.3,0.6-0.7,0.8-1.1c0.3-0.4,0.5-0.7,0.8-1.1c0.4-0.6,0.5-1.4,0.2-2.1
	c-0.3-0.7-1-1.1-1.7-1.1C21.9,71,21.2,71.4,20.9,72.1z"/>
<path class="st0" d="M23.7,86.3c0.5-0.4,1-0.8,1.5-1.2c0.5-0.4,1-0.9,1.5-1.3c0.5-0.5,0.9-0.9,1.4-1.4c0.5-0.5,0.6-1.3,0.4-2
	c-0.2-0.7-0.8-1.2-1.5-1.3c-0.7-0.2-1.4,0.1-1.9,0.6c-0.4,0.4-0.8,0.8-1.2,1.2c-0.4,0.4-0.8,0.8-1.3,1.1c-0.4,0.4-0.9,0.7-1.3,1.1
	c-0.5,0.3-0.9,0.7-1.4,1c-0.5,0.3-1,0.6-1.5,0.9c-0.9,0.6-1.2,1.7-0.7,2.7c0.5,0.9,1.7,1.3,2.6,0.8c0.6-0.3,1.1-0.7,1.7-1
	C22.6,87.1,23.2,86.7,23.7,86.3z"/>
<path class="st0" d="M90.5,115.7c0.9,0.6,2.2,0.3,2.8-0.7c0.6-1,1.1-1.9,1.7-2.9c0.6-1,1.1-2,1.6-3c0.5-1,1-2,1.5-3
	c0.5-1,0.9-1.9,1.4-3c0.3-0.7,0.2-1.4-0.2-2c-0.4-0.6-1.1-0.9-1.8-0.8c-0.7,0.1-1.3,0.5-1.6,1.2c-0.4,1-0.8,1.9-1.3,2.9
	c-0.5,1-1,2-1.4,2.9c-0.5,1-1,1.9-1.5,2.9c-0.5,0.9-1.1,1.9-1.6,2.8c-0.3,0.5-0.4,1-0.2,1.5C89.7,115,90,115.4,90.5,115.7z"/>
<path class="st0" d="M100.6,96.7c0.9,0,1.6-0.5,1.9-1.4c0.2-0.6,0.4-1.3,0.6-1.9c0.3-1.1,0.7-2.2,1-3.3c0.3-1.1,0.6-2.2,0.9-3.3
	c0.3-1.1,0.5-2.3,0.8-3.4c0.2-1.1,0.5-2.3,0.7-3.4c0.2-1.2,0.4-2.3,0.5-3.5c0.2-1.2,0.3-2.3,0.4-3.5c0.1-1.2,0.2-2.4,0.3-3.5
	c0.1-1.2,0.1-2.4,0.2-3.6c0-1.2,0.1-2.4,0.1-3.6c0-1.3-0.1-2.6-0.2-3.9c-0.1-1.3-0.3-2.5-0.6-3.8c-0.3-1.2-0.6-2.4-0.9-3.6
	c-0.4-1.2-0.8-2.3-1.3-3.5c-0.5-1.2-1.6-3.3-2.1-4.1c-0.5-1-1.7-1.3-2.7-0.8c-1,0.5-1.3,1.7-0.8,2.7c0.9,1.6,1.6,3,1.9,3.8
	c0.9,2.1,1.5,4.2,2,6.4c0.2,1.1,0.4,2.2,0.5,3.4c0.1,1.2,0.2,2.3,0.2,3.5c0,1.2,0,2.3-0.1,3.5c0,1.2-0.1,2.3-0.2,3.4
	c-0.1,1.1-0.2,2.3-0.3,3.4c-0.1,1.1-0.3,2.3-0.4,3.4c-0.1,1.1-0.3,2.2-0.5,3.3c-0.2,1.1-0.4,2.2-0.6,3.3c-0.2,1.1-0.5,2.2-0.7,3.3
	c-0.3,1.1-0.5,2.1-0.8,3.2c-0.3,1.1-0.6,2.1-1,3.2c-0.2,0.6-0.4,1.2-0.6,1.8c-0.4,1,0.2,2.2,1.2,2.5
	C100.1,96.6,100.3,96.7,100.6,96.7z"/>
<path class="st0" d="M84.7,27.2c-1.1-0.5-2.3-0.9-3.5-1.3c-2.4-0.8-4.9-1.3-7.4-1.5c-0.7-0.1-1.4,0.2-1.8,0.8
	c-0.4,0.6-0.5,1.3-0.2,2c0.3,0.7,0.9,1.1,1.6,1.2c1.1,0.1,2.3,0.3,3.4,0.5c1.1,0.2,2.2,0.5,3.3,0.8c1.1,0.3,2.1,0.7,3.1,1.1
	c1,0.4,2,0.9,3,1.4c1,0.5,1.9,1.1,2.8,1.7c0.9,0.6,1.8,1.3,2.6,2c0.7,0.6,2.4,2.2,3.6,3.5c0.8,0.8,2,0.7,2.8,0c0.8-0.8,0.8-2,0-2.8
	c-0.5-0.5-2.9-2.8-3.9-3.7c-0.9-0.8-1.9-1.5-2.9-2.2c-1-0.7-2.1-1.3-3.1-1.9C86.9,28.2,85.8,27.6,84.7,27.2z"/>
<path class="st0" d="M48.6,30.7c-1,0.7-2,1.4-2.9,2.2c-0.9,0.8-1.8,1.6-2.7,2.5c-0.9,0.9-1.7,1.8-2.5,2.7C39.7,39,39,40,38.3,41
	c-0.6,0.9-0.4,2.2,0.5,2.8s2.2,0.4,2.8-0.5c0.6-0.9,1.3-1.8,2-2.6c0.7-0.8,1.4-1.7,2.2-2.4c0.8-0.8,1.6-1.5,2.4-2.2
	c0.8-0.7,1.7-1.4,2.6-2c0.9-0.6,1.8-1.2,2.8-1.7c1-0.5,2-1,3-1.4c1-0.4,2.1-0.8,3.1-1.1c1.1-0.3,2.2-0.6,3.3-0.8
	c1.1-0.2,1.8-1.3,1.6-2.4c-0.2-1.1-1.3-1.8-2.4-1.6c-1.2,0.3-2.5,0.6-3.6,0.9c-1.2,0.4-2.4,0.8-3.5,1.3c-1.1,0.5-2.2,1-3.3,1.6
	C50.6,29.4,49.6,30,48.6,30.7z"/>
<path class="st0" d="M30.2,76.1c1,0.4,2.2,0,2.6-1c0.1-0.2,0.2-0.5,0.4-0.8c0.3-0.7,0.7-1.5,0.9-2c0.2-0.6,0.4-1.3,0.6-1.9
	c0.2-0.6,0.3-1.3,0.5-2c0.1-0.7,0.3-1.3,0.4-2c0.1-0.7,0.2-1.4,0.2-2.1c0-0.7,0.1-1.4,0.1-2.1c0-1.2,0.1-2.3,0.2-3.5
	c0.1-1.1,0.3-2.3,0.5-3.4c0.2-1.1,0.8-3.5,1.1-4.6c0.2-0.7,0-1.4-0.4-2c-0.5-0.5-1.2-0.8-1.9-0.6c-0.7,0.2-1.3,0.7-1.5,1.4
	c-0.4,1.2-1,3.7-1.2,4.9c-0.3,1.3-0.4,2.5-0.6,3.8c-0.1,1.3-0.2,2.6-0.2,3.9c0,0.6,0,1.2-0.1,1.8c0,0.6-0.1,1.2-0.2,1.8
	c-0.1,0.6-0.2,1.2-0.3,1.7c-0.1,0.6-0.3,1.1-0.4,1.7c-0.2,0.6-0.3,1.1-0.5,1.7c-0.1,0.4-0.5,1-0.7,1.6c-0.2,0.3-0.3,0.7-0.4,0.9
	c-0.2,0.5-0.2,1,0,1.5C29.4,75.5,29.7,75.9,30.2,76.1z"/>
</svg>
