<?xml version="1.0" encoding="utf-8"?>
<!-- Generator: Adobe Illustrator 22.0.1, SVG Export Plug-In . SVG Version: 6.00 Build 0)  -->
<svg version="1.1" id="favorites-button" xmlns="http://www.w3.org/2000/svg" xmlns:xlink="http://www.w3.org/1999/xlink" x="0px"
	 y="0px" viewBox="0 0 35.7 35.7" style="enable-background:new 0 0 35.7 35.7;" xml:space="preserve">
<path id="Path_1273" d="M24.1,21.2c-0.1-0.2,0-0.5,0.2-0.6l4.5-3.3c0.9-0.7,1.1-1.9,0.4-2.8c-0.4-0.5-1-0.8-1.6-0.8l-5.6,0
	c-0.3,0-0.5-0.2-0.6-0.4l-1.8-5.3c-0.3-0.8-1.1-1.4-1.9-1.4l0,0c-0.9,0-1.7,0.6-1.9,1.4l-0.8,2.4c-0.1,0.4,0.1,0.8,0.5,0.9
	c0.4,0.1,0.8-0.1,0.9-0.4l0.8-2.4C17.4,8,17.7,7.8,18,7.9c0.2,0.1,0.3,0.2,0.4,0.4l1.8,5.3c0.3,0.8,1,1.4,1.9,1.4l5.6,0
	c0.3,0,0.6,0.3,0.6,0.6c0,0.2-0.1,0.4-0.2,0.5l-4.5,3.3c-0.7,0.5-1,1.4-0.7,2.3l1.7,5.3c0.1,0.3-0.1,0.6-0.4,0.7
	c-0.2,0.1-0.4,0-0.5-0.1L19,24.4c-0.7-0.5-1.7-0.5-2.4,0l-4.6,3.3c-0.3,0.2-0.6,0.1-0.8-0.1c-0.1-0.2-0.1-0.3-0.1-0.5l1.7-5.3
	c0.3-0.8,0-1.7-0.7-2.3l-4.5-3.3c-0.3-0.2-0.3-0.6-0.1-0.8C7.6,15.1,7.8,15,8,15l5.6,0c0.4,0,0.7-0.4,0.7-0.8c0-0.4-0.3-0.7-0.7-0.7
	l0,0l-5.6,0c-1.1,0-2,0.9-2,2c0,0.6,0.3,1.2,0.8,1.6l4.5,3.3c0.2,0.1,0.3,0.4,0.2,0.6l-1.7,5.3c-0.3,0.8,0,1.8,0.7,2.3
	c0.7,0.5,1.7,0.5,2.4,0l4.6-3.3c0.2-0.1,0.5-0.1,0.7,0l4.6,3.3c0.9,0.7,2.2,0.5,2.8-0.5c0.4-0.5,0.5-1.2,0.3-1.8L24.1,21.2z"/>
<path id="Path_1274" d="M17.8,0C8,0,0,8,0,17.8s8,17.8,17.8,17.8c0.4,0,0.7-0.4,0.7-0.8c0-0.4-0.3-0.7-0.7-0.7
	c-9,0-16.4-7.3-16.4-16.4c0-9,7.3-16.4,16.4-16.4s16.4,7.3,16.4,16.4c0,5.6-2.9,10.8-7.6,13.8c-0.3,0.2-0.4,0.7-0.2,1
	c0.2,0.3,0.6,0.4,1,0.2c8.3-5.3,10.7-16.3,5.5-24.6C29.6,3.1,23.9,0,17.8,0z"/>
</svg>
