<?xml version="1.0" encoding="utf-8"?>
<!-- Generator: Adobe Illustrator 22.0.1, SVG Export Plug-In . SVG Version: 6.00 Build 0)  -->
<svg version="1.1" id="Capa_1" xmlns="http://www.w3.org/2000/svg" xmlns:xlink="http://www.w3.org/1999/xlink" x="0px" y="0px"
	 viewBox="0 0 41.4 41.4" style="enable-background:new 0 0 41.4 41.4;" xml:space="preserve">
<g id="group_1_">
	<path id="Path_1068" d="M41.4,21.3V16c0-1.5-1-2.8-2.4-3.2l-4.3-1.3v-1c1.3-0.9,2-2.3,2-3.8v-2C36.7,2.1,34.6,0,32,0
		c-2.6,0-4.7,2.1-4.7,4.7c0,0,0,0,0,0v2c0,1.5,0.7,3,2,3.8v1l-3.8,1.1c-2.9-2.6-7.2-2.6-10.2-0.1l-3.4-1v-1c1.3-0.9,2-2.3,2-3.8v-2
		C14,2.1,11.9,0,9.3,0S4.7,2.1,4.7,4.7c0,0,0,0,0,0v2c0,1.5,0.7,3,2,3.8v1l-4.3,1.3C1,13.2,0,14.5,0,16v5.4h1.3V16
		c0-0.9,0.6-1.7,1.4-1.9l4.3-1.3C7.6,13.5,8.4,14,9.3,14c0.9,0,1.8-0.5,2.3-1.2l2.7,0.8c-0.9,1.1-1.5,2.5-1.6,3.9
		c-1.8-1.9-4.7-2-6.6-0.2c-0.9,0.9-1.5,2.1-1.5,3.4v2c0,1.5,0.7,3,2,3.8v1l-4.3,1.3C1,29.2,0,30.5,0,32v6h8c0.4,0,0.7,0.3,0.7,0.7
		v2.7h24v-2.7c0-0.4,0.3-0.7,0.7-0.7h8v-6c0-1.5-1-2.8-2.4-3.2l-4.3-1.3v-1c1.3-0.9,2-2.3,2-3.8v-2c0-2.6-2.1-4.7-4.7-4.7
		c-1.3,0-2.5,0.5-3.3,1.4v-0.6c0-1.3-0.7-2.5-1.8-3.1l2.9-0.9c0.8,1.3,2.5,1.6,3.8,0.8c0.3-0.2,0.6-0.5,0.8-0.8l4.3,1.3
		c0.8,0.3,1.4,1,1.4,1.9v5.4L41.4,21.3z M9.3,1.3c1.8,0,3.3,1.5,3.3,3.3H9.6c-0.4,0-0.8-0.2-1.1-0.5L8,3.7L7.5,4.2
		C7.2,4.5,6.8,4.7,6.4,4.7H6C6,2.8,7.5,1.3,9.3,1.3z M6,6.7V6h0.4C7,6,7.5,5.8,8,5.5C8.5,5.8,9,6,9.6,6h3.1v0.7
		c0,1.8-1.5,3.3-3.3,3.3S6,8.5,6,6.7L6,6.7z M9.3,12.7c-0.6,0-1.1-0.4-1.3-0.9v-0.7c0.9,0.3,1.8,0.3,2.7,0v0.7
		C10.4,12.3,9.9,12.6,9.3,12.7L9.3,12.7z M27.7,24.4c0.3,0.9,0.9,1.6,1.7,2.1v1l-4.3,1.3c-0.1,0-0.3,0.1-0.4,0.2L24,28.8v-1.3
		c0.7-0.6,1.3-1.3,1.6-2.2C26.4,25.3,27.1,24.9,27.7,24.4z M20.7,28.7c0.7,0,1.4-0.1,2-0.4V29l-2,1.5l-2-1.5v-0.7
		C19.3,28.6,20,28.7,20.7,28.7L20.7,28.7z M17.9,30.1l1.6,1.2l-1.7,1l-0.4-2.1L17.9,30.1z M19.9,35.4h1.5l0.5,4.7h-2.5L19.9,35.4z
		 M21.5,34h-1.7l-0.4-1.1l1.2-0.7l1.2,0.7L21.5,34z M21.9,31.3l1.6-1.2l0.5,0.1l-0.4,2.1L21.9,31.3z M26.8,23.4
		c-0.2,0.2-0.5,0.4-0.8,0.5c0-0.2,0-0.4,0-0.6v-3.2c0.7,0.3,1.2,0.9,1.3,1.7C27.4,22.4,27.2,22.9,26.8,23.4z M24.7,23.3
		c0,2.2-1.8,4-4,4s-4-1.8-4-4V20h2.3c1.4,0,2.9-0.4,4.1-1.1l0.5,1.1h1.1V23.3z M15.4,23.9c-1-0.3-1.6-1.4-1.3-2.5
		c0.2-0.6,0.7-1.1,1.2-1.3v3.2C15.3,23.5,15.4,23.7,15.4,23.9z M15.7,25.3c0.3,0.9,0.9,1.6,1.6,2.2v1.3L16.7,29
		c-0.1-0.1-0.3-0.1-0.4-0.2L12,27.5v-1c0.8-0.5,1.3-1.3,1.7-2.1C14.2,24.9,15,25.3,15.7,25.3L15.7,25.3z M9.3,17.3
		c1.8,0,3.3,1.5,3.3,3.3h-0.4c-0.4,0-0.8-0.2-1.1-0.5l-0.5-0.5l-0.5,0.5c-0.3,0.3-0.7,0.5-1.1,0.5H6C6,18.8,7.5,17.3,9.3,17.3z
		 M6,22.7V22h3.1c0.6,0,1.1-0.2,1.6-0.5c0.5,0.3,1,0.5,1.6,0.5h0.4v0.7c0,1.8-1.4,3.4-3.3,3.4S6,24.6,6,22.8C6,22.8,6,22.7,6,22.7
		L6,22.7z M9.3,27.4c0.5,0,0.9-0.1,1.3-0.2v0.7c-0.3,0.5-0.8,0.8-1.3,0.9c-0.6,0-1.1-0.4-1.3-0.9v-0.7C8.4,27.3,8.9,27.4,9.3,27.4
		L9.3,27.4z M8,36.7H5.3V32H4v4.7H1.3V32c0-0.9,0.6-1.7,1.4-1.9l4.3-1.3C7.6,29.5,8.4,30,9.3,30c0.9,0,1.8-0.5,2.3-1.2l2.5,0.8
		L12.3,30c-2.1,0.5-3.6,2.4-3.6,4.5v0.8H10v-0.8c0-1.6,1.1-2.9,2.6-3.2l3.5-0.8l0.8,3.9l1.4-0.8l0.4,1.2L18.1,40h-3.4v-5.3h-1.3V40
		H10v-1.3C10,37.6,9.1,36.7,8,36.7C8,36.7,8,36.7,8,36.7L8,36.7z M38.6,30.1c0.8,0.3,1.4,1,1.4,1.9v4.7h-2.7V32H36v4.7h-2.7
		c-1.1,0-2,0.9-2,2V40H28v-5.3h-1.3V40h-3.4l-0.6-5.3l0.4-1.2l1.4,0.8l0.8-3.9l3.5,0.8c1.5,0.3,2.6,1.7,2.6,3.3v0.8h1.3v-0.8
		c0-2.2-1.5-4.1-3.6-4.5l-1.9-0.4l2.5-0.8c0.8,1.3,2.5,1.6,3.8,0.8c0.3-0.2,0.6-0.5,0.8-0.8L38.6,30.1z M33.4,27.8
		c-0.3,0.7-1.2,1.1-2,0.7c-0.3-0.1-0.6-0.4-0.7-0.7v-0.7c0.9,0.3,1.8,0.3,2.7,0V27.8z M32,26c-1.8,0-3.3-1.5-3.3-3.3V22h0.4
		c0.6,0,1.1-0.2,1.6-0.5c0.5,0.3,1,0.5,1.6,0.5h3.1v0.7C35.3,24.5,33.9,26,32,26L32,26z M32,17.3c1.8,0,3.3,1.5,3.3,3.3h-3.1
		c-0.4,0-0.8-0.2-1.1-0.5l-0.5-0.5l-0.5,0.5c-0.3,0.3-0.7,0.5-1.1,0.5h-0.4C28.7,18.8,30.2,17.3,32,17.3L32,17.3z M27.4,19.4
		c-0.6-0.5-1.4-0.7-2.1-0.7h-0.8L23.6,17L23,17.5c-1.2,0.8-2.6,1.2-4,1.2h-2.8c-0.8,0-1.5,0.3-2.1,0.7v-1c0-3.5,2.9-6.4,6.4-6.4
		c1.7,0,3.3,0.7,4.5,1.9l0.7,0.7l0.1,0.1c0.9,0.3,1.5,1.2,1.5,2.1V19.4z M32,1.3c1.8,0,3.3,1.5,3.3,3.3H35c-0.4,0-0.8-0.2-1.1-0.5
		l-0.5-0.5l-0.5,0.5c-0.3,0.3-0.7,0.5-1.1,0.5h-3.1C28.7,2.8,30.2,1.3,32,1.3L32,1.3z M28.7,6.7V6h3.1c0.6,0,1.1-0.2,1.6-0.5
		C33.8,5.8,34.4,6,35,6h0.4v0.7c0,1.8-1.4,3.4-3.3,3.4c-1.8,0-3.4-1.4-3.4-3.3C28.7,6.7,28.7,6.7,28.7,6.7L28.7,6.7z M32,12.7
		c-0.6,0-1.1-0.4-1.3-0.9v-0.7c0.9,0.3,1.8,0.3,2.7,0v0.7C33.1,12.3,32.6,12.6,32,12.7L32,12.7z"/>
	<path id="Path_1069" d="M15.3,0h1.3v1.3h-1.3V0z"/>
	<path id="Path_1070" d="M15.3,2.7h1.3V10h-1.3V2.7z"/>
	<path id="Path_1071" d="M24.7,0H26v1.3h-1.3V0z"/>
	<path id="Path_1072" d="M24.7,2.7H26V10h-1.3V2.7z"/>
	<path id="Path_1073" d="M18,2.7h1.3v4.7H18V2.7z"/>
	<path id="Path_1074" d="M18,8.7h1.3V10H18V8.7z"/>
	<path id="Path_1075" d="M22,2.7h1.3v4.7H22V2.7z"/>
	<path id="Path_1076" d="M22,8.7h1.3V10H22V8.7z"/>
</g>
</svg>
