<?xml version="1.0" encoding="utf-8"?>
<!-- Generator: Adobe Illustrator 22.0.1, SVG Export Plug-In . SVG Version: 6.00 Build 0)  -->
<svg version="1.1" id="Capa_1" xmlns="http://www.w3.org/2000/svg" xmlns:xlink="http://www.w3.org/1999/xlink" x="0px" y="0px"
	 viewBox="0 0 42.1 42.1" style="enable-background:new 0 0 42.1 42.1;" xml:space="preserve">
<g id="question" transform="translate(0 -0.02)">
	<g id="Group_1215" transform="translate(0 24.173)">
		<g id="Group_1214">
			<path id="Path_1256" d="M42.1,3c-0.1-1.7-1.6-3.1-3.3-3c-0.7,0-1.4,0.3-2,0.8L30,7.2c0-1.4-0.9-2.6-2.2-3l-8.3-2.1
				c-1.5-0.4-3-0.3-4.4,0.1L9.3,4.1V2.5C9.3,2,9,1.6,8.5,1.6H0.8C0.4,1.6,0,2,0,2.5v14.6c0,0.5,0.4,0.8,0.8,0.8h7.7
				c0.5,0,0.8-0.4,0.8-0.8V5.8l6.2-2c1.1-0.4,2.3-0.4,3.5-0.1l8.3,2.1c0.7,0.2,1.1,0.9,1,1.6c-0.2,0.6-0.7,1-1.3,1h-5.8
				c-0.5,0-0.8,0.3-0.9,0.8c0,0.5,0.3,0.8,0.8,0.9c0,0,0,0,0.1,0H23c0,0,0.1,0,0.1,0h4.1c1.4,0,2.7-0.5,3.6-1.4L37.9,2
				c0.6-0.6,1.6-0.6,2.1,0c0.6,0.6,0.6,1.6,0,2.1c0,0,0,0,0,0l-9.7,9.1c-0.7,0.6-1.5,1-2.5,1H15c-0.5,0-0.8,0.3-0.9,0.8
				c0,0.5,0.3,0.8,0.8,0.9c0,0,0,0,0.1,0h12.7c1.3,0,2.6-0.5,3.6-1.4l9.7-9.1C41.7,4.8,42.1,3.9,42.1,3z M7.7,16.3h-6v-13h6
				L7.7,16.3L7.7,16.3z"/>
		</g>
	</g>
	<g id="Group_1217" transform="translate(10.881 38.468)">
		<g id="Group_1216">
			<path id="Path_1257" d="M1.4,0.2c-0.3-0.3-0.8-0.3-1.2,0s-0.3,0.8,0,1.2c0.3,0.3,0.8,0.3,1.2,0C1.6,1.2,1.6,1,1.6,0.8
				C1.6,0.6,1.6,0.4,1.4,0.2z"/>
		</g>
	</g>
	<g id="Group_1219" transform="translate(3.838 37.619)">
		<g id="Group_1218">
			<path id="Path_1258" d="M1.4,0.2c-0.3-0.3-0.8-0.3-1.2,0c-0.3,0.3-0.3,0.8,0,1.2c0.3,0.3,0.8,0.3,1.2,0C1.6,1.2,1.6,1,1.6,0.8
				C1.6,0.6,1.6,0.4,1.4,0.2z"/>
		</g>
	</g>
	<g id="Group_1221" transform="translate(13.638 0.02)">
		<g id="Group_1220">
			<path id="Path_1259" d="M7.4,0C3.3,0,0,3.3,0,7.4c0,1.4,1.2,2.4,2.5,2.4c1.3,0,2.4-1.1,2.4-2.4C4.9,6,6,4.9,7.4,4.9
				c1.4,0,2.5,1.1,2.5,2.5S8.8,9.9,7.4,9.9l0,0C6,9.9,4.9,11,4.9,12.3v3.5c0,1.4,1.1,2.5,2.4,2.5c1.4,0,2.5-1.1,2.5-2.4
				c0,0,0-0.1,0-0.1v-1.5c3.9-1.4,5.9-5.6,4.5-9.4C13.3,2,10.5,0,7.4,0z M8.8,13c-0.4,0.1-0.6,0.4-0.6,0.8v2.1
				c0,0.5-0.3,0.8-0.8,0.9c-0.5,0-0.8-0.3-0.9-0.8c0,0,0,0,0-0.1v-3.5c0-0.5,0.4-0.8,0.8-0.8l0,0c2.3,0,4.1-1.8,4.1-4.1
				S9.7,3.3,7.4,3.3c-2.3,0-4.1,1.8-4.1,4.1c0,0.5-0.3,0.8-0.8,0.9C2,8.3,1.7,7.9,1.6,7.5c0,0,0,0,0-0.1c0-3.2,2.6-5.8,5.8-5.8
				c3.2,0,5.8,2.6,5.8,5.8C13.1,10,11.4,12.3,8.8,13L8.8,13z"/>
		</g>
	</g>
	<g id="Group_1223" transform="translate(18.567 20.24)">
		<g id="Group_1222">
			<path id="Path_1260" d="M4.2,0.7c-1-1-2.5-1-3.5,0c-1,1-1,2.5,0,3.5s2.5,1,3.5,0c0.5-0.5,0.7-1.1,0.7-1.7
				C4.9,1.8,4.7,1.2,4.2,0.7z M3,3C2.7,3.4,2.2,3.4,1.9,3C1.7,2.9,1.6,2.7,1.6,2.5c0-0.2,0.1-0.4,0.2-0.6c0.3-0.3,0.8-0.3,1.2,0
				S3.4,2.7,3,3L3,3z"/>
		</g>
	</g>
	<g id="Group_1225" transform="translate(3.838 29.143)">
		<g id="Group_1224">
			<path id="Path_1261" d="M0.8,0C0.4,0,0,0.4,0,0.8V6c0,0.5,0.3,0.8,0.8,0.9c0.5,0,0.8-0.3,0.9-0.8c0,0,0,0,0-0.1V0.8
				C1.6,0.4,1.3,0,0.8,0z"/>
		</g>
	</g>
</g>
</svg>
