<?xml version="1.0" encoding="utf-8"?>
<!-- Generator: Adobe Illustrator 22.0.1, SVG Export Plug-In . SVG Version: 6.00 Build 0)  -->
<svg version="1.1" id="Capa_1" xmlns="http://www.w3.org/2000/svg" xmlns:xlink="http://www.w3.org/1999/xlink" x="0px" y="0px"
	 viewBox="0 0 37.9 30.3" style="enable-background:new 0 0 37.9 30.3;" xml:space="preserve">
<g id="pay" transform="translate(0.001)">
	<g id="Group_1227" transform="translate(0 0)">
		<g id="Group_1226">
			<path id="Path_1262" d="M37.2,0h-12c-0.3,0-0.6,0.3-0.6,0.6l0,0v1.9h-1.9c-0.3,0-0.6,0.3-0.6,0.6l0,0v7.2l-4.6,2.3H0.6
				c-0.3,0-0.6,0.3-0.6,0.6v16.4c0,0.3,0.3,0.6,0.6,0.6h12.6c0.3,0,0.6-0.3,0.6-0.6v-1.8l6.8,1.1c0,0,0.1,0,0.1,0h9.5
				c0.9,0,1.7-0.5,2.2-1.3h2.2c0.3,0,0.6-0.3,0.6-0.6v-1.9h1.9c0.3,0,0.6-0.3,0.6-0.6v-24C37.9,0.3,37.6,0,37.2,0z M12.6,29H1.3
				V13.9h11.4V29z M25.9,1.3h10.7v13.8c0-0.9-0.5-1.7-1.3-2.1V3.2c0-0.3-0.3-0.6-0.6-0.6l0,0h-8.8V1.3z M23.3,3.8h10.7v8.8h-1.3V6.9
				c0-0.3-0.3-0.6-0.6-0.6l0,0c-0.3,0-0.6-0.3-0.6-0.6l0,0c0-0.3-0.3-0.6-0.6-0.6c0,0,0,0,0,0h-4.4c-0.3,0-0.6,0.3-0.6,0.6l0,0
				c0,0.3-0.3,0.6-0.6,0.6c0,0,0,0,0,0c-0.3,0-0.6,0.3-0.6,0.6l0,0v5.7h-1.3L23.3,3.8z M31.5,7.5v5.2h-5.7V7.5
				c0.5-0.2,1-0.6,1.2-1.2h3.4C30.6,6.8,31,7.3,31.5,7.5L31.5,7.5z M34.1,26.5h-1.3c0-0.5-0.1-1-0.4-1.4c1.3-0.5,2-1.9,1.5-3.2
				c-0.1-0.2-0.2-0.4-0.3-0.6c0.1-0.1,0.3-0.1,0.4-0.2L34.1,26.5z M34.1,16.4h-2.5c-0.3,0-0.6,0.3-0.6,0.6c0,0.3,0.3,0.6,0.6,0.6
				h1.3c0.7,0,1.3,0.6,1.3,1.3s-0.6,1.3-1.3,1.3h-2.5c-0.3,0-0.6,0.3-0.6,0.6c0,0.3,0.3,0.6,0.6,0.6h1.3c0.7,0,1.3,0.6,1.3,1.3
				S32.2,24,31.5,24H29c-0.3,0-0.6,0.3-0.6,0.6c0,0.3,0.3,0.6,0.6,0.6l0,0h1.3c0.7,0,1.3,0.6,1.3,1.3s-0.6,1.3-1.3,1.3h-9.4l-7-1.2
				V13.9h3.8c0.1,0,0.2,0,0.3-0.1l4.1-2.1v1.5c0,0.3,0.3,0.6,0.6,0.6c0,0,0,0,0,0h11.4c0.7,0,1.3,0.6,1.3,1.3S34.8,16.4,34.1,16.4
				L34.1,16.4z M35.3,24v-6.6c0.8-0.4,1.2-1.2,1.3-2.1V24L35.3,24z"/>
		</g>
	</g>
	<g id="Group_1229" transform="translate(6.31 22.715)">
		<g id="Group_1228">
			<path id="Path_1263" d="M2.5,0C1.1,0,0,1.1,0,2.5C0,3.9,1.1,5,2.5,5S5,3.9,5,2.5l0,0C5,1.1,3.9,0,2.5,0z M2.5,3.8
				c-0.7,0-1.3-0.6-1.3-1.3c0-0.7,0.6-1.3,1.3-1.3s1.3,0.6,1.3,1.3l0,0C3.8,3.2,3.2,3.8,2.5,3.8z"/>
		</g>
	</g>
</g>
</svg>
