<svg xmlns="http://www.w3.org/2000/svg" viewBox="0 0 110.093 94.672">
  <defs>
    <style>
      .cls-1 {
        fill: #f4a208;
      }
    </style>
  </defs>
  <g id="danger_1_" data-name="danger (1)" transform="translate(0 -35.857)">
    <g id="Group_1628" data-name="Group 1628" transform="translate(0 35.857)">
      <g id="Group_1627" data-name="Group 1627" transform="translate(0 0)">
        <path id="Path_1508" data-name="Path 1508" class="cls-1" d="M108.674,115.532,63.516,40.64a9.891,9.891,0,0,0-16.94,0L1.418,115.532a9.89,9.89,0,0,0,8.47,15H100.2a9.89,9.89,0,0,0,8.47-15Zm-6.1,6.446a2.727,2.727,0,0,1-2.371,1.384H9.888a2.723,2.723,0,0,1-2.332-4.128L52.714,44.342a2.723,2.723,0,0,1,4.663,0l45.158,74.892A2.726,2.726,0,0,1,102.575,121.978Z" transform="translate(0 -35.857)"/>
      </g>
    </g>
    <g id="Group_1630" data-name="Group 1630" transform="translate(50.225 65.347)">
      <g id="Group_1629" data-name="Group 1629">
        <path id="Path_1509" data-name="Path 1509" class="cls-1" d="M238.432,173.005c-2.727,0-4.854,1.463-4.854,4.057,0,7.913.931,19.285.931,27.2,0,2.061,1.8,2.926,3.924,2.926,1.6,0,3.857-.864,3.857-2.926,0-7.913.931-19.285.931-27.2C243.22,174.468,241.026,173.005,238.432,173.005Z" transform="translate(-233.578 -173.005)"/>
      </g>
    </g>
    <g id="Group_1632" data-name="Group 1632" transform="translate(50.025 104.116)">
      <g id="Group_1631" data-name="Group 1631">
        <path id="Path_1510" data-name="Path 1510" class="cls-1" d="M237.772,353.306a5.121,5.121,0,0,0,0,10.241,5.121,5.121,0,0,0,0-10.241Z" transform="translate(-232.651 -353.306)"/>
      </g>
    </g>
  </g>
</svg>
