<svg xmlns="http://www.w3.org/2000/svg" viewBox="0 0 14.725 17.998">
  <g id="padlock" transform="translate(-36.549)">
    <path id="Path_1456" data-name="Path 1456" d="M50.915,8.539a1.183,1.183,0,0,0-.869-.358h-.409V5.727A5.51,5.51,0,0,0,47.95,1.687a5.678,5.678,0,0,0-8.079,0,5.511,5.511,0,0,0-1.687,4.039V8.181h-.409a1.222,1.222,0,0,0-1.227,1.227v7.363A1.222,1.222,0,0,0,37.775,18H50.046a1.222,1.222,0,0,0,1.227-1.227V9.408A1.183,1.183,0,0,0,50.915,8.539Zm-3.732-.358H40.638V5.727A3.153,3.153,0,0,1,41.6,3.413a3.271,3.271,0,0,1,4.627,0,3.153,3.153,0,0,1,.959,2.314Z"/>
  </g>
</svg>
