<?xml version="1.0" encoding="utf-8"?>
<!-- Generator: Adobe Illustrator 22.0.1, SVG Export Plug-In . SVG Version: 6.00 Build 0)  -->
<svg version="1.1" id="cancel" xmlns="http://www.w3.org/2000/svg" xmlns:xlink="http://www.w3.org/1999/xlink" x="0px" y="0px"
	 viewBox="0 0 90 90" style="enable-background:new 0 0 90 90;" xml:space="preserve">
<style type="text/css">
	.st0{fill:#FF0606;}
</style>
<g id="Grupo_1513">
	<path id="Trazado_729" class="st0" d="M76.8,13.2C59.4-4.6,30.9-4.9,13.2,12.5s-18.1,45.9-0.7,63.6c0.2,0.2,0.4,0.5,0.7,0.7
		c17.4,17.8,45.9,18.1,63.6,0.7s18.1-45.9,0.7-63.6C77.3,13.6,77,13.4,76.8,13.2z M73.2,73.2c-15.7,15.5-40.9,15.3-56.4-0.4
		c-15.3-15.5-15.3-40.4,0-56C32.3,1.1,57.5,0.9,73.2,16.4s15.9,40.7,0.4,56.4C73.5,72.9,73.3,73.1,73.2,73.2z"/>
	<path id="Trazado_730" class="st0" d="M64.8,25.2c-1-1-2.6-1-3.6,0c0,0,0,0,0,0L45,41.4L28.8,25.2c-1-1-2.6-1-3.6,0.1
		c-1,1-1,2.6,0,3.6L41.4,45L25.2,61.2c-1,1-1,2.6,0,3.6c0.5,0.5,1.1,0.7,1.8,0.7c0.7,0,1.3-0.3,1.8-0.8L45,48.6l16.2,16.2
		c0.5,0.5,1.1,0.8,1.8,0.8c0.7,0,1.3-0.3,1.8-0.8c1-1,1-2.6,0-3.6c0,0,0,0,0,0L48.6,45l16.2-16.2C65.8,27.8,65.8,26.2,64.8,25.2
		C64.8,25.2,64.8,25.2,64.8,25.2z"/>
</g>
</svg>
