<?xml version="1.0" encoding="utf-8"?>
<!-- Generator: Adobe Illustrator 22.0.1, SVG Export Plug-In . SVG Version: 6.00 Build 0)  -->
<svg version="1.1" id="verified" xmlns="http://www.w3.org/2000/svg" xmlns:xlink="http://www.w3.org/1999/xlink" x="0px" y="0px"
	 viewBox="0 0 90 90" style="enable-background:new 0 0 90 90;" xml:space="preserve">
<style type="text/css">
	.st0{fill:#006341;}
</style>
<g id="Grupo_842" transform="translate(0 0)">
	<g id="Grupo_841" transform="translate(0 0)">
		<path id="Trazado_392" class="st0" d="M76.8,13.2c-17.6-17.6-46.1-17.6-63.6,0s-17.6,46.1,0,63.6s46.1,17.6,63.6,0
			S94.4,30.8,76.8,13.2z M45,84.7C23.1,84.7,5.3,66.9,5.3,45S23.1,5.3,45,5.3S84.7,23.1,84.7,45c0,0,0,0,0,0
			C84.7,66.9,66.9,84.7,45,84.7z"/>
	</g>
</g>
<g id="Grupo_844" transform="translate(23.147 30.075)">
	<g id="Grupo_843">
		<path id="Trazado_393" class="st0" d="M42.9,0.8c-1-1-2.6-1-3.7,0c0,0,0,0,0,0L16.4,23.6l-12-12c-1-1-2.6-1-3.7,0s-1,2.6,0,3.7
			l0,0l13.9,13.9c1,1,2.6,1,3.7,0c0,0,0,0,0,0L42.9,4.4C44,3.4,44,1.8,42.9,0.8C42.9,0.8,42.9,0.8,42.9,0.8z"/>
	</g>
</g>
</svg>
