<?xml version="1.0" encoding="utf-8"?>
<!-- Generator: Adobe Illustrator 22.0.1, SVG Export Plug-In . SVG Version: 6.00 Build 0)  -->
<svg version="1.1" id="Capa_1" xmlns="http://www.w3.org/2000/svg" xmlns:xlink="http://www.w3.org/1999/xlink" x="0px" y="0px"
	 viewBox="0 0 82.8 102.6" style="enable-background:new 0 0 82.8 102.6;" xml:space="preserve">
<style type="text/css">
	.st0{fill:#006341;}
</style>
<g>
	<path class="st0" d="M65.5,0H0v81.7h33.4c-0.2-1.3-0.3-2.6-0.3-3.9c0-0.3,0-0.5,0-0.8H16.2V47.3h45.9v5.9c1.7,0.3,3.2,0.7,4.8,1.3
		v-12H11.5v34.4H4.8V4.8h10V31H62V4.8h1.5l11.7,11.7v43.4c1.9,1.9,3.5,4,4.8,6.4V14.5L65.5,0z M57.3,26.2H19.5V4.8h37.8V26.2z"/>
	<path class="st0" d="M73.7,67.2c-1.1-1.1-2.9-1.1-4.1,0L53.7,83.1l-8-8c-0.5-0.6-1.2-0.9-2-0.9c-0.8,0-1.5,0.3-2.1,0.8
		c-1.1,1.1-1.2,2.9-0.1,4.1l10.2,10.2c0.5,0.5,1.3,0.8,2,0.8s1.5-0.3,2-0.8l17.9-17.9C74.8,70.1,74.8,68.3,73.7,67.2L73.7,67.2z"/>
	<path class="st0" d="M33.5,55.5c1.3,0,2.4-1.1,2.4-2.4c0-0.6-0.2-1.2-0.7-1.7c-0.5-0.5-1-0.7-1.7-0.7H22c0,0,0,0,0,0
		c-0.6,0-1.2,0.2-1.7,0.7c-0.5,0.5-0.7,1-0.7,1.7c0,1.3,1.1,2.4,2.4,2.4H33.5z"/>
	<path class="st0" d="M38.4,57.3H22c-1.3,0-2.4,1.1-2.4,2.4c0,1.3,1.1,2.4,2.4,2.4h16.4c1.3,0,2.4-1.1,2.4-2.4S39.7,57.3,38.4,57.3z
		"/>
	<path class="st0" d="M45.7,59.6c0-1.3-1.1-2.4-2.4-2.4c0,0,0,0,0,0c-0.6,0-1.2,0.2-1.7,0.7l-0.2,0.2v0c-0.7,0.9-0.6,2.3,0.2,3.1
		c0.5,0.4,1,0.7,1.7,0.7C44.6,62,45.7,61,45.7,59.6z"/>
	<path class="st0" d="M55.5,6.5H44.2v17.9h11.3V6.5z M48.9,19.6v-8.3h1.8l0,8.3H48.9z"/>
</g>
</svg>
