<svg xmlns="http://www.w3.org/2000/svg" viewBox="0 0 36.19 32.9"><defs><style>.cls-1,.cls-2,.cls-3{fill:#065134;}.cls-1,.cls-3{stroke:#065134;stroke-miterlimit:10;}.cls-1{stroke-width:0.75px;fill-rule:evenodd;}</style></defs><title>tarjeta</title><g id="Capa_2" data-name="Capa 2"><g id="_2" data-name="2"><path class="cls-1" d="M14.19,7.5,23.45.88A2.42,2.42,0,0,1,26.6,1,3.1,3.1,0,0,1,27,1.5l8.3,11.62a2.42,2.42,0,0,1-.61,3.57L16.2,29.9a2.42,2.42,0,0,1-3.58-.58L4.33,17.72a2.43,2.43,0,0,1,.61-3.61ZM9.11,22.32l.17.24,4.32,6.05a1.21,1.21,0,0,0,1.87.31L34,15.69a1.21,1.21,0,0,0,.31-1.86L30,7.77l-.18-.23Zm-2.83-4L27,3.56l-.29-.41L26,2.23a1.22,1.22,0,0,0-1.9-.32L5.65,15.1l-.2.15a1.18,1.18,0,0,0-.28,1.56C5.52,17.33,5.9,17.82,6.27,18.35Zm2.12,3L29.07,6.53,27.68,4.59,7,19.36Z"/><path class="cls-2" d="M17.71,22.29a1.29,1.29,0,1,1-1.8-.3,1.29,1.29,0,0,1,1.8.3"/><path class="cls-2" d="M16.35,19.73a9.3,9.3,0,0,0-1.16,1.43c-.89,1.45-1.12,3-.48,3.76a1.28,1.28,0,0,0,1.7.26c-1.12,1-2.13,1.16-2.72.48s-.3-2.74.92-4.35a6.9,6.9,0,0,1,.58-.64,10.15,10.15,0,0,1,1.16-.94"/><path class="cls-2" d="M13.63,21.67A9.44,9.44,0,0,1,15.37,21c1.66-.37,3.22-.08,3.71.77a1.28,1.28,0,0,1-.3,1.7c1.3-.74,1.78-1.64,1.33-2.42-.54-.94-2.49-1.17-4.41-.54a6.59,6.59,0,0,0-.8.34,10,10,0,0,0-1.27.79"/><rect class="cls-3" x="0.5" y="31.4" width="16" height="1" rx="0.3" ry="0.3"/></g></g></svg>