<?xml version="1.0" encoding="utf-8"?>
<!-- Generator: Adobe Illustrator 22.0.1, SVG Export Plug-In . SVG Version: 6.00 Build 0)  -->
<svg version="1.1" xmlns="http://www.w3.org/2000/svg" xmlns:xlink="http://www.w3.org/1999/xlink" x="0px" y="0px"
	 viewBox="0 0 58.8 58.8" style="enable-background:new 0 0 58.8 58.8;" xml:space="preserve">
<style type="text/css">
	.st0{display:none;}
	.st1{display:inline;}
	.st2{fill:#006341;fill-opacity:0;}
	.st3{fill:#006341;}
</style>
<g id="Capa_1" class="st0">
	<g id="Capa_2_1_" class="st1">
		<g id="Capa_3">
			<rect class="st2" width="58.8" height="58.8"/>
		</g>
		<g id="Capa_1-2">
			<g id="Group_1207">
				<g id="id-card">
					<path id="Path_1222" class="st3" d="M45,16.8H14.5c-1.4,0-2.5,1.1-2.5,2.5c0,0,0,0,0,0v21c0,1.4,1.1,2.5,2.5,2.5c0,0,0,0,0,0
						H45c1.4,0,2.5-1.1,2.5-2.5c0,0,0,0,0,0v-21C47.5,17.9,46.4,16.8,45,16.8C45,16.8,45,16.8,45,16.8z M13.8,21.5
						c0.3,0,0.6-0.3,0.6-0.6h2.4c0,0.3,0.2,0.6,0.6,0.6c0,0,0,0,0,0c0.3,0,0.6-0.2,0.6-0.4c0-0.1,0-0.1,0-0.2h2.4
						c0,0.3,0.3,0.6,0.6,0.6s0.6-0.3,0.6-0.6H24c0,0.3,0.3,0.6,0.6,0.6s0.6-0.3,0.6-0.6h2.4c0,0.3,0.3,0.6,0.6,0.6s0.6-0.3,0.6-0.6
						h2.4c0,0.3,0.3,0.6,0.6,0.6c0.3,0,0.6-0.3,0.6-0.6h2.4c0,0.3,0.3,0.6,0.6,0.6c0.3,0,0.6-0.3,0.6-0.6h2c0,0.3,0.3,0.6,0.6,0.6
						c0.3,0,0.6-0.3,0.6-0.6h2.4c0,0.3,0.3,0.6,0.6,0.6c0.3,0,0.6-0.3,0.6-0.6h2.4c0,0.3,0.2,0.6,0.6,0.6c0,0,0,0,0,0
						c0.3,0,0.6-0.2,0.6-0.4c0-0.1,0-0.1,0-0.2l0,0v3.6c0-0.3-0.3-0.6-0.6-0.6c-0.3,0-0.6,0.3-0.6,0.6h-2.4c0-0.3-0.3-0.6-0.6-0.6
						c-0.3,0-0.6,0.3-0.6,0.6h-2.4c0-0.3-0.3-0.6-0.6-0.6c-0.3,0-0.6,0.3-0.6,0.6h-2.4c0-0.3-0.3-0.6-0.6-0.6
						c-0.3,0-0.6,0.3-0.6,0.6H32c0-0.3-0.3-0.6-0.6-0.6s-0.6,0.3-0.6,0.6h-2.4c0-0.3-0.3-0.6-0.6-0.6s-0.6,0.3-0.6,0.6H25
						c0-0.3-0.3-0.6-0.6-0.6s-0.6,0.3-0.6,0.6h-2.3c0-0.3-0.3-0.6-0.6-0.6s-0.6,0.3-0.6,0.6h-2.4c0-0.3-0.3-0.6-0.6-0.6
						s-0.6,0.3-0.6,0.6h-2.3c0-0.3-0.3-0.6-0.6-0.6c-0.3,0-0.6,0.3-0.6,0.6c0,0,0,0,0,0v-3.6c0,0.3,0.2,0.6,0.4,0.6
						C13.7,21.5,13.7,21.5,13.8,21.5z M46.3,40.3c0,0.7-0.6,1.3-1.3,1.3H14.5c-0.7,0-1.3-0.6-1.3-1.3V25.7h33.1V40.3z M13.2,19.8
						v-0.5c0-0.7,0.6-1.3,1.3-1.3H45c0.7,0,1.3,0.6,1.3,1.3v0.5L13.2,19.8z"/>
					<path id="Path_1223" class="st3" d="M42,39.9h2.6v-13h-13v13H42z M35.1,38.7L35.1,38.7c0-0.2,0.1-0.5,0.3-0.6l1.5-0.8
						c0.3-0.1,0.5-0.5,0.5-0.8v-0.8L37,35.5c-0.6-0.3-1-0.8-1.1-1.4v-0.3l-0.3-0.1c-0.1,0-0.1-0.1-0.1-0.2v-0.4c0-0.1,0-0.1,0.1-0.2
						l0.3-0.1v-0.3c0-0.3,0.1-0.7,0.2-1c0.1-0.1,0.1-0.2,0.1-0.3c0.1-0.2,0.1-0.3,0.2-0.5c0.4,0.2,0.9,0.3,1.4,0.2H38
						c1.7,0,2.1,0.8,2.1,1.6v0.3l0.3,0.1c0.1,0,0.1,0.1,0.1,0.2v0.4c0,0.1,0,0.1-0.1,0.2l-0.3,0.1L40,34.1c-0.1,0.6-0.5,1.1-1.1,1.4
						l-0.4,0.2v0.8c0,0.3,0.2,0.6,0.5,0.8l1.5,0.8c0.2,0.1,0.4,0.3,0.4,0.6H35.1z M32.7,28h10.6v10.6h-1.2c0-0.7-0.4-1.3-1-1.7
						l-1.3-0.6c0.6-0.4,1-1,1.2-1.7c0.4-0.2,0.7-0.7,0.7-1.2V33c0-0.4-0.2-0.8-0.5-1c-0.2-1.1-1-2.3-3.3-2.3h-0.3
						c-0.4,0.1-0.8-0.1-1.1-0.3l-0.3-0.3c-0.2-0.3-0.6-0.3-0.9-0.1c0,0,0,0,0,0c-0.2,0.1-0.3,0.4-0.3,0.6c0,0.2,0,0.3,0.1,0.5
						c0,0.1,0,0.2,0.1,0.3c0,0.1,0,0.1-0.1,0.2c0,0.1-0.1,0.2-0.2,0.3c-0.1,0.3-0.2,0.7-0.3,1c-0.3,0.2-0.5,0.6-0.5,1v0.4
						c0,0.5,0.3,1,0.7,1.2c0.2,0.7,0.6,1.3,1.2,1.7l-1.3,0.6c-0.6,0.3-1,1-1,1.7h-1.2V28H32.7z"/>
					<path id="Path_1224" class="st3" d="M15.5,29.2h5.3c0.3,0,0.6-0.3,0.6-0.6S21.1,28,20.8,28h-5.3c-0.3,0-0.6,0.3-0.6,0.6
						C15,29,15.2,29.2,15.5,29.2z"/>
					<path id="Path_1225" class="st3" d="M23.2,29.2h5.3c0.3,0,0.6-0.3,0.6-0.6S28.8,28,28.5,28h-5.3c-0.3,0-0.6,0.2-0.6,0.6
						c0,0,0,0,0,0C22.6,28.9,22.9,29.2,23.2,29.2z"/>
					<path id="Path_1226" class="st3" d="M15.5,32.2h0.6c0.3,0,0.6-0.3,0.6-0.6S16.4,31,16.1,31h-0.6c-0.3,0-0.6,0.3-0.6,0.6
						C15,31.9,15.2,32.2,15.5,32.2z"/>
					<path id="Path_1227" class="st3" d="M19.7,32.2c0.3,0,0.6-0.3,0.6-0.6S20,31,19.7,31h-1.2c-0.3,0-0.6,0.3-0.6,0.6
						s0.3,0.6,0.6,0.6H19.7z"/>
					<path id="Path_1228" class="st3" d="M22.1,32.2h0.6c0.3,0,0.6-0.3,0.6-0.6S23,31,22.7,31h-0.6c-0.3,0-0.6,0.3-0.6,0.6
						S21.8,32.2,22.1,32.2L22.1,32.2z"/>
					<path id="Path_1229" class="st3" d="M26.2,32.2c0.3,0,0.6-0.3,0.6-0.6S26.5,31,26.2,31H25c-0.3,0-0.6,0.3-0.6,0.6
						s0.3,0.6,0.6,0.6H26.2z"/>
					<path id="Path_1230" class="st3" d="M28.1,31.2c-0.2,0.2-0.2,0.6,0,0.8c0.2,0.2,0.6,0.2,0.8,0c0.2-0.2,0.2-0.6,0-0.8
						c0,0,0,0,0,0C28.8,30.9,28.4,30.9,28.1,31.2z"/>
					<path id="Path_1231" class="st3" d="M18.9,34.2c-1.2,0.7-1.9,1.9-1.9,3.3l-0.7-0.6c-0.6-0.5-1.4,0.3-0.8,0.8l1.7,1.4
						c0.2,0.2,0.6,0.2,0.8,0c0-0.1,0.1-0.3,0.1-0.4c0-1.3,0.1-2.8,1.4-3.5C20.2,34.9,19.6,33.8,18.9,34.2z"/>
					<path id="Path_1232" class="st3" d="M26.7,36c-0.9-0.1-2.1,1.3-2.8,0.1c-0.1-0.3-0.5-0.4-0.7-0.2c0,0-0.1,0-0.1,0
						c-0.8,0.5-1.9,1.3-2.8,0.3c-0.5-0.6-1.4,0.3-0.8,0.8c1.1,1.2,2.5,0.8,3.8,0.2c0.3,0.3,0.7,0.5,1.1,0.6c0.5,0.1,2.4-0.7,2.5-0.5
						c0.4,0.6,1.5,0,1-0.6C27.7,36.3,27.2,36,26.7,36z"/>
					<circle id="Ellipse_368" class="st3" cx="36.8" cy="22.7" r="0.6"/>
					<circle id="Ellipse_369" class="st3" cx="40.4" cy="22.7" r="0.6"/>
					<circle id="Ellipse_370" class="st3" cx="26.2" cy="22.7" r="0.6"/>
					<circle id="Ellipse_371" class="st3" cx="29.7" cy="22.7" r="0.6"/>
					<circle id="Ellipse_372" class="st3" cx="33.3" cy="22.7" r="0.6"/>
					<circle id="Ellipse_373" class="st3" cx="43.9" cy="22.7" r="0.6"/>
					<circle id="Ellipse_374" class="st3" cx="22.6" cy="22.7" r="0.6"/>
					<circle id="Ellipse_375" class="st3" cx="15.5" cy="22.7" r="0.6"/>
					<circle id="Ellipse_376" class="st3" cx="19.1" cy="22.7" r="0.6"/>
				</g>
			</g>
		</g>
	</g>
</g>
<g id="Capa_2" class="st0">
	<g id="calendar_1_" transform="translate(106 291.491)" class="st1">
		<path id="Path_1326" class="st3" d="M-65.1-274.2L-65.1-274.2C-65.1-274.3-65.1-274.3-65.1-274.2c-0.1-0.1-0.1-0.2-0.2-0.2
			c0,0,0,0-0.1-0.1c0,0-0.1,0-0.1-0.1c-0.1,0-0.1-0.1-0.2-0.1c0,0,0,0-0.1,0h-2.8c-0.1-1.9-1-3.4-2.2-3.4s-2.1,1.4-2.2,3.4h-1
			c-0.1-1.9-1-3.4-2.2-3.4c-1.2,0-2.1,1.4-2.2,3.4h-1.2c-0.1-1.9-1-3.4-2.2-3.4c-1.2,0-2.1,1.5-2.2,3.5h-1.2c-0.1-2-1.1-3.4-2.2-3.4
			s-2.1,1.4-2.2,3.4h-2.8c-0.3,0-0.6,0.2-0.6,0.5v29c0,0.3,0.3,0.6,0.6,0.6h26.8c0.3,0,0.6-0.3,0.6-0.6v-1.7h5
			c0.3,0,0.6-0.3,0.6-0.6v-0.1L-65.1-274.2z M-70.7-276.9c0.4,0,1,0.9,1.1,2.2h-2.2C-71.6-276-71.1-276.9-70.7-276.9z M-76.2-276.9
			c0.4,0,1,0.9,1.1,2.2h-2.2C-77.2-276-76.6-276.9-76.2-276.9L-76.2-276.9z M-81.8-276.9c0.4,0,1,0.9,1.1,2.2h-2.2
			C-82.8-276-82.2-276.9-81.8-276.9L-81.8-276.9z M-87.4-276.9c0.4,0,1,0.9,1.1,2.2h-2.2C-88.4-276-87.8-276.9-87.4-276.9
			L-87.4-276.9z M-91.9-273.5h2.3c0.1,1.9,1,3.4,2.2,3.4c0.3,0,0.6-0.3,0.6-0.6c0-0.3-0.3-0.6-0.6-0.6c-0.4,0-1-0.9-1.1-2.2h4.5
			c0.1,1.9,1,3.4,2.2,3.4c0.3,0,0.6-0.3,0.6-0.6c0-0.3-0.3-0.6-0.6-0.6c-0.4,0-1-0.9-1.1-2.2h4.5c0.1,1.9,1,3.4,2.2,3.4
			c0.3,0,0.6-0.3,0.6-0.6c0-0.3-0.3-0.6-0.6-0.6c-0.4,0-1-0.9-1.1-2.2h4.5c0.1,1.9,1,3.4,2.2,3.4c0.3,0,0.6-0.3,0.6-0.6
			c0-0.3-0.3-0.6-0.6-0.6c-0.4,0-1-0.9-1.1-2.2h5.6v5.6h-25.8V-273.5z M-66.2-245.6h-25.7v-21.2h25.7
			C-66.2-266.8-66.2-245.6-66.2-245.6z M-65.1-247.8v-20.9l4.3,20.8L-65.1-247.8L-65.1-247.8z"/>
		<path id="Path_1327" class="st3" d="M-80.7-257.9h-2.2c-0.3,0-0.6,0.3-0.6,0.6v2.2c0,0.3,0.3,0.6,0.6,0.6h2.2
			c0.3,0,0.6-0.3,0.6-0.6v-2.2C-80.2-257.6-80.4-257.9-80.7-257.9z M-81.3-255.7h-1.1v-1.1h1.1V-255.7z"/>
		<path id="Path_1328" class="st3" d="M-75.1-257.9h-2.2c-0.3,0-0.6,0.2-0.6,0.6v2.2c0,0.3,0.3,0.6,0.6,0.6h2.2
			c0.3,0,0.6-0.3,0.6-0.6v-2.2C-74.6-257.6-74.8-257.9-75.1-257.9z M-75.7-255.7h-1.1v-1.1h1.1V-255.7z"/>
		<path id="Path_1329" class="st3" d="M-86.3-257.9h-2.2c-0.3,0-0.6,0.3-0.6,0.6v2.2c0,0.3,0.3,0.6,0.6,0.6h2.2
			c0.3,0,0.6-0.3,0.6-0.6v-2.2C-85.7-257.6-86-257.9-86.3-257.9z M-86.9-255.7H-88v-1.1h1.1V-255.7z"/>
		<path id="Path_1330" class="st3" d="M-80.7-252.3h-2.2c-0.3,0-0.6,0.3-0.6,0.6v2.2c0,0.3,0.2,0.6,0.6,0.6h2.2
			c0.3,0,0.6-0.3,0.6-0.6v-2.2C-80.2-252.1-80.4-252.3-80.7-252.3z M-81.3-250.1h-1.1v-1.1h1.1V-250.1z"/>
		<path id="Path_1331" class="st3" d="M-75.1-252.3h-2.2c-0.3,0-0.6,0.3-0.6,0.6v2.2c0,0.3,0.3,0.6,0.6,0.6h2.2
			c0.3,0,0.6-0.3,0.6-0.6v-2.2C-74.6-252.1-74.8-252.3-75.1-252.3z M-75.7-250.1h-1.1v-1.1h1.1V-250.1z"/>
		<path id="Path_1332" class="st3" d="M-86.3-252.3h-2.2c-0.3,0-0.6,0.3-0.6,0.6v2.2c0,0.3,0.2,0.6,0.6,0.6h2.2
			c0.3,0,0.6-0.3,0.6-0.6v-2.2C-85.7-252.1-86-252.3-86.3-252.3z M-86.9-250.1H-88v-1.1h1.1V-250.1z"/>
		<path id="Path_1333" class="st3" d="M-80.7-263.5h-2.2c-0.3,0-0.6,0.3-0.6,0.6v2.2c0,0.3,0.3,0.6,0.6,0.6h2.2
			c0.3,0,0.6-0.3,0.6-0.6v-2.2C-80.2-263.2-80.4-263.5-80.7-263.5z M-81.3-261.2h-1.1v-1.1h1.1V-261.2z"/>
		<path id="Path_1334" class="st3" d="M-75.1-263.5h-2.2c-0.3,0-0.6,0.2-0.6,0.6v2.2c0,0.3,0.3,0.6,0.6,0.6h2.2
			c0.3,0,0.6-0.3,0.6-0.6v-2.2C-74.6-263.2-74.8-263.5-75.1-263.5z M-75.7-261.2h-1.1v-1.1h1.1V-261.2z"/>
		<path id="Path_1335" class="st3" d="M-69.5-257.9h-2.2c-0.3,0-0.6,0.2-0.6,0.6v2.2c0,0.3,0.3,0.6,0.6,0.6h2.2
			c0.3,0,0.6-0.3,0.6-0.6v-2.2C-69-257.6-69.2-257.9-69.5-257.9z M-70.1-255.7h-1.1v-1.1h1.1V-255.7z"/>
		<path id="Path_1336" class="st3" d="M-69.5-252.3h-2.2c-0.3,0-0.6,0.3-0.6,0.6v2.2c0,0.3,0.3,0.6,0.6,0.6h2.2
			c0.3,0,0.6-0.3,0.6-0.6v-2.2C-69-252.1-69.2-252.3-69.5-252.3z M-70.1-250.1h-1.1v-1.1h1.1V-250.1z"/>
		<path id="Path_1337" class="st3" d="M-69.5-263.5h-2.2c-0.3,0-0.6,0.2-0.6,0.6v2.2c0,0.3,0.3,0.6,0.6,0.6h2.2
			c0.3,0,0.6-0.3,0.6-0.6v-2.2C-69-263.2-69.2-263.5-69.5-263.5z M-70.1-261.2h-1.1v-1.1h1.1V-261.2z"/>
		<path id="Path_1338" class="st3" d="M-86.3-263.5h-2.2c-0.3,0-0.6,0.3-0.6,0.6v2.2c0,0.3,0.3,0.6,0.6,0.6h2.2
			c0.3,0,0.6-0.3,0.6-0.6v-2.2C-85.7-263.2-86-263.5-86.3-263.5z M-86.9-261.2H-88v-1.1h1.1V-261.2z"/>
	</g>
</g>
<g id="criterio2" class="st0">
	<g id="employees" transform="translate(208 263.213)" class="st1">
		<g id="Group_1286" transform="translate(18.695 54.112)">
			<g id="Group_1285" transform="translate(0 0)">
				<path id="Path_1344" class="st3" d="M-193.6-281h-1.9c-0.3,0-0.5,0.2-0.5,0.5s0.2,0.5,0.5,0.5h1.9c0.3,0,0.5-0.2,0.5-0.5
					S-193.3-281-193.6-281z"/>
			</g>
		</g>
		<g id="Group_1288" transform="translate(14.765 32.063)">
			<g id="Group_1287">
				<path id="Path_1345" class="st3" d="M-178.6-264.3l-2.7-1.1l-1.4-1.4c-0.1-0.1-0.2-0.1-0.3-0.1v-1.1c0.7-0.7,1.1-1.6,1.3-2.6
					c0.1,0,0.2,0,0.4,0c0.7-0.2,1.2-0.8,1.2-1.5v-0.4c0-0.4-0.2-0.8-0.4-1.1c0.4-2.4,0.1-4.4-1.1-5.7c-1.5-1.3-3.4-1.9-5.3-1.7
					c-1.4,0.1-2.8,0.6-3.9,1.4c-0.4,0-0.7,0.2-1,0.4c-0.8,0.5-1.3,1.5-1.2,2.5c0,1,0.1,2,0.3,2.9c-0.5,0.2-0.8,0.8-0.8,1.3v0.4
					c0,0.7,0.5,1.3,1.2,1.5c0.1,0,0.2,0,0.4,0c0.2,1,0.6,1.9,1.3,2.6v1.1c-0.1,0-0.2,0.1-0.3,0.1l-1.4,1.4l-2.7,1.1
					c-0.2,0.1-0.5,0.2-0.7,0.4c-0.2,0.2-0.3,0.5-0.1,0.7c0,0.2,0.4,0.2,0.6,0.1l0,0c0.1-0.1,0.3-0.2,0.5-0.2l2.5-1l1.9,2.9
					c0.2,0.4,0.6,0.6,1.1,0.6h0.1c0.2,0,0.5-0.1,0.7-0.2l-0.4,9.4c0,0.3,0.2,0.5,0.5,0.5l0,0l0,0c0.3,0,0.5-0.2,0.5-0.5l0.4-8.8h1
					l0.4,8.8c0,0.3,0.2,0.5,0.5,0.5l0,0c0.3,0,0.5-0.2,0.5-0.5l0,0l-0.4-9.4c0.2,0.1,0.5,0.2,0.7,0.2h0.1c0.4,0,0.8-0.3,1.1-0.6
					l1.9-2.9l2.5,1c0.3,0.1,0.7,0.4,0.9,0.6l-1.6,1.7c-0.6,0.6-1,1.5-1,2.3v7.1c0,0.3,0.2,0.5,0.5,0.5s0.5-0.2,0.5-0.5v-7.1
					c0-0.6,0.2-1.2,0.7-1.6l1.5-1.5c0.1,0.2,0.1,0.5,0.1,0.7l-0.4,9.6c0,0.3,0.2,0.5,0.5,0.5l0,0l0,0c0.3,0,0.5-0.2,0.5-0.5l0.4-9.6
					C-176.5-262.5-177.3-263.8-178.6-264.3z M-191-270.8c-0.1-0.5-0.5-0.8-1-0.8h-0.1c-0.2-0.1-0.4-0.3-0.4-0.5v-0.4
					c0-0.2,0.1-0.4,0.4-0.5c0.2,0,0.3,0,0.4,0.2c0.2,0.3,0.7,0.4,1,0.2c0.3-0.2,0.6-0.5,0.8-0.8c0.2-0.3,0.1-0.6-0.1-0.7
					s-0.5-0.2-0.7,0.1c-0.1,0.1-0.3,0.3-0.4,0.4c-0.2-0.1-0.3-0.2-0.5-0.3c-0.3-0.9-0.4-1.9-0.4-2.8c-0.1-0.6,0.2-1.3,0.7-1.6
					c0.2-0.1,0.5-0.2,0.8-0.2c0.1,0,0.3-0.1,0.3-0.1c1-0.8,2.1-1.2,3.4-1.3c1.6-0.2,3.2,0.3,4.3,1.4c1,1.3,1.3,3,0.9,4.6
					c-0.1,0-0.3,0-0.4,0l-0.6-1.1c-0.1-0.2-0.3-0.4-0.6-0.3c0,0-4.7,1.2-6.6-1.2c-0.1-0.3-0.5-0.3-0.7-0.1c-0.2,0.2-0.2,0.4-0.1,0.7
					l0,0c2,2.5,5.9,1.9,7.2,1.7l0.4,0.8c0.2,0.4,0.6,0.6,1,0.5c0.1,0,0.2,0,0.4,0c0.2,0.1,0.4,0.3,0.4,0.5v0.4
					c0,0.2-0.1,0.4-0.4,0.5h-0.1c-0.5,0-0.9,0.3-1,0.8c-0.4,2.3-2.6,3.8-4.9,3.4C-189.3-267.8-190.7-269.1-191-270.8L-191-270.8z
					 M-188.8-261.9c-0.2,0.2-0.4,0.2-0.6,0c0,0,0,0-0.1-0.1l-2-2.9l0.8-0.8l3,2.6L-188.8-261.9z M-187.4-261.3v-0.7l0.4-0.4l0.6,0.4
					v0.7H-187.4z M-186.9-263.8l-2.8-2.4v-1c1.7,1.1,3.9,1.1,5.6,0v1L-186.9-263.8z M-184.3-262c-0.1,0.2-0.4,0.3-0.6,0.1
					c0,0,0,0-0.1-0.1l-1.2-1.2l3-2.6l0.8,0.8L-184.3-262z"/>
			</g>
		</g>
		<g id="Group_1290" transform="translate(0 32.063)">
			<g id="Group_1289" transform="translate(0 0)">
				<path id="Path_1346" class="st3" d="M-180.1-261.7l-2.4-1.1l-1.3-1.3c-0.1-0.1-0.2-0.1-0.3-0.1v-0.8c1.2-0.8,2-2,2.3-3.4
					c0.1,0,0.3,0,0.4,0c0.7-0.2,1.1-0.8,1.1-1.5v-0.4c0-0.5-0.2-1-0.6-1.2c-0.1-0.5,0-0.9,0-1.4c0-2-1.1-3.9-2.8-5
					c-0.1-1.7-1.6-3.1-3.4-3.1c-1.7,0-3.2,1.4-3.3,3.1c-1.7,1.1-2.8,2.9-2.8,5c0,0.5,0.1,0.9,0.2,1.4c-0.4,0.3-0.6,0.7-0.6,1.2v0.4
					c0,0.7,0.4,1.3,1.1,1.5c0.1,0,0.3,0,0.4,0c0.2,1.4,1,2.6,2.2,3.4v0.8c-0.1,0-0.2,0.1-0.3,0.1l-1.3,1.3l-2.5,1.1
					c-1.3,0.6-2,1.8-2,3.2l0.3,7c0,0.3,0.2,0.5,0.5,0.5l0,0c0.3,0,0.5-0.2,0.5-0.5l0,0l-0.3-7c0-0.4,0.1-0.9,0.3-1.3l1.3,1.6
					c0.4,0.5,0.6,1.1,0.6,1.8v4.9c0,0.3,0.2,0.5,0.5,0.5s0.5-0.2,0.5-0.5l0,0v-4.9c0-0.9-0.3-1.7-0.9-2.4l-1.3-1.8
					c0.1-0.1,0.2-0.2,0.4-0.2l2.1-0.9l1.5,2.4c0.3,0.5,0.9,0.6,1.3,0.3l0.1-0.1l1-0.8v8.3c0,0.3,0.2,0.5,0.5,0.5
					c0.3,0,0.5-0.2,0.5-0.5v-8.3l1,0.8c0.4,0.3,1,0.3,1.4-0.1l0.1-0.1l1.5-2.4l2.1,0.9c0.1,0.1,0.3,0.1,0.4,0.2l-1.4,1.7
					c-0.6,0.7-0.9,1.5-0.9,2.4v4.9c0,0.3,0.2,0.5,0.5,0.5c0.3,0,0.5-0.2,0.5-0.5v-4.9c0-0.7,0.2-1.3,0.6-1.8l1.3-1.6
					c0.2,0.4,0.3,0.8,0.3,1.3l-0.3,7c0,0.3,0.2,0.5,0.5,0.5l0,0l0,0c0.3,0,0.5-0.2,0.5-0.5l0.3-7
					C-178-259.9-178.8-261.1-180.1-261.7z M-187.1-280c1,0,1.9,0.6,2.2,1.6c-1.4-0.5-3-0.5-4.5,0C-189-279.4-188.1-280-187.1-280
					L-187.1-280z M-191.2-268.6c-0.1-0.5-0.5-0.8-1-0.8h-0.1c-0.2-0.1-0.3-0.3-0.3-0.5v-0.4c0-0.2,0.1-0.4,0.4-0.5
					c0.2,0,0.3,0,0.4,0.2c0.2,0.3,0.7,0.4,1,0.2c0.3-0.2,0.6-0.5,0.8-0.8c0.1-0.2,0-0.6-0.2-0.7c-0.2-0.2-0.5-0.1-0.7,0.1
					c-0.1,0.1-0.2,0.3-0.4,0.4c-0.2-0.2-0.5-0.3-0.7-0.3c-0.1-0.4-0.2-0.8-0.2-1.2c0.1-2.8,2.4-5,5.1-4.9c2.8-0.1,5.1,2.1,5.1,4.9
					c0,0.4,0,0.8-0.1,1.2c-0.1,0-0.3,0-0.4,0.1l-0.3-0.4c-0.2-0.2-0.4-0.2-0.7-0.2c-0.7,0-4.5,0.1-6.5-2.2c-0.1-0.2-0.4-0.2-0.7-0.1
					c-0.2,0.2-0.2,0.5,0,0.8c1.1,1.2,2.6,2,4.2,2.3c1,0.2,2.1,0.3,3.1,0.2l0.6,0.5c0.2,0.1,0.4,0.2,0.6,0c0.2-0.1,0.3-0.1,0.5-0.1
					c0.2,0.1,0.4,0.3,0.4,0.5v0.4c0,0.2-0.1,0.4-0.3,0.5h-0.1c-0.5,0-0.9,0.3-1,0.8c-0.4,2.3-2.6,3.8-4.9,3.4
					C-189.5-265.6-190.8-266.9-191.2-268.6L-191.2-268.6z M-189.1-259.8l-1.5-2.4l0.7-0.8l2.1,2L-189.1-259.8z M-187.1-261.6
					l-1.8-1.8v-1c1.2,0.5,2.5,0.5,3.7,0v1L-187.1-261.6z M-185-259.8l-1.3-1.2l2.1-2.1l0.8,0.8L-185-259.8z"/>
			</g>
		</g>
		<g id="Group_1292" transform="translate(5.163 56.325)">
			<g id="Group_1291">
				<path id="Path_1347" class="st3" d="M-194.1-281h-1.4c-0.3,0-0.5,0.2-0.5,0.5s0.2,0.5,0.5,0.5h1.4c0.3,0,0.5-0.2,0.5-0.5
					S-193.8-281-194.1-281z"/>
			</g>
		</g>
	</g>
</g>
<g id="criterio3" class="st0">
	<g id="steps" transform="translate(203.169 300.191)" class="st1">
		<path id="Path_1348" class="st3" d="M-174.6-275.6c-1.1,1-2.1,2.2-2.8,3.5c-0.3,0.7,0,1.4,0.7,1.7c0.2,0.1,0.3,0.1,0.5,0.1h4.5
			c0.7,0,1.3-0.5,1.4-1.2c0.1-0.7-0.5-1.3-1.2-1.4c-0.1,0-0.1,0-0.2,0h-1.9c0.3-0.3,0.6-0.6,0.9-0.9c1.3-1.2,2.4-2.3,2.4-3.6
			c-0.1-2-1.7-3.6-3.7-3.6c-1.4,0-2.8,0.9-3.3,2.2c-0.3,0.6-0.1,1.4,0.6,1.7c0.6,0.4,1.4,0.1,1.7-0.5c0-0.1,0.1-0.1,0.1-0.2
			c0.2-0.5,0.8-0.7,1.3-0.5c0.3,0.1,0.6,0.5,0.6,0.9C-173.5-276.8-174-276.2-174.6-275.6z"/>
		<path id="Path_1349" class="st3" d="M-193.7-276l0.5-0.6v3.6h-0.9c-0.7,0-1.3,0.6-1.4,1.3c0,0.7,0.5,1.3,1.2,1.4
			c0.1,0,0.1,0,0.2,0h4.4c0.7,0,1.3-0.5,1.4-1.2c0-0.7-0.5-1.3-1.2-1.4c-0.1,0-0.1,0-0.2,0h-0.9v-6.8c0-0.7-0.6-1.3-1.3-1.3
			c-0.3,0-0.7,0.2-0.9,0.4l-2.8,2.8c-0.5,0.5-0.6,1.3-0.1,1.8s1.3,0.6,1.8,0.1C-193.8-275.9-193.8-275.9-193.7-276z"/>
		<path id="Path_1350" class="st3" d="M-155.7-268.3c-2.2,0-3.9,1.8-3.9,3.9c0,2.2,1.8,3.9,3.9,3.9c2.2,0,3.9-1.8,3.9-3.9l0,0
			C-151.7-266.5-153.5-268.3-155.7-268.3C-155.6-268.3-155.6-268.3-155.7-268.3z M-154.7-263.4c-0.5,0.5-1.4,0.5-1.9,0
			s-0.5-1.4,0-1.9s1.4-0.5,1.9,0c0.3,0.3,0.4,0.6,0.4,0.9C-154.3-264-154.5-263.7-154.7-263.4L-154.7-263.4z"/>
		<path id="Path_1351" class="st3" d="M-174-260.4c2.2,0,3.9-1.8,3.9-4c0-2.1-1.7-3.8-3.9-3.9l0,0c-2.2,0-3.9,1.8-3.9,4
			C-177.8-262.2-176.1-260.4-174-260.4z M-174.9-265.3c0.5-0.5,1.4-0.5,1.9,0s0.5,1.4,0,1.9s-1.4,0.5-1.9,0
			c-0.3-0.3-0.4-0.6-0.4-0.9C-175.3-264.7-175.2-265-174.9-265.3L-174.9-265.3z"/>
		<path id="Path_1352" class="st3" d="M-184.1-264.2c0-0.7-0.5-1.2-1.2-1.2s-1.2,0.5-1.2,1.2c0,0.7,0.5,1.2,1.2,1.2
			C-184.7-263-184.1-263.6-184.1-264.2z"/>
		<path id="Path_1353" class="st3" d="M-179.4-264.2c0-0.7-0.5-1.2-1.2-1.2c-0.7,0-1.2,0.5-1.2,1.2c0,0.7,0.5,1.2,1.2,1.2
			C-180-263-179.4-263.6-179.4-264.2L-179.4-264.2z"/>
		<path id="Path_1354" class="st3" d="M-166.1-264.2c0-0.7-0.5-1.2-1.2-1.2s-1.2,0.5-1.2,1.2c0,0.7,0.5,1.2,1.2,1.2
			S-166.1-263.6-166.1-264.2L-166.1-264.2z"/>
		<path id="Path_1355" class="st3" d="M-161.4-264.2c0-0.7-0.5-1.2-1.2-1.2c-0.7,0-1.2,0.5-1.2,1.2c0,0.7,0.5,1.2,1.2,1.2
			C-161.9-263-161.4-263.6-161.4-264.2L-161.4-264.2z"/>
		<path id="Path_1357" class="st3" d="M-189.3-268.1l-3.6,3.6l-0.9-0.9c-0.5-0.5-1.4-0.4-1.8,0.1c-0.4,0.5-0.4,1.2,0,1.7l1.8,1.8
			c0.2,0.2,0.6,0.4,0.9,0.4l0,0c0.3,0,0.7-0.1,0.9-0.4l4.5-4.5c0.5-0.5,0.4-1.4-0.1-1.8S-188.8-268.5-189.3-268.1L-189.3-268.1z"/>
		<path id="Path_1358" class="st3" d="M-155.7-270.3c2,0,3.6-1.6,3.6-3.6c0-1-0.3-2-1-2.8c-0.2-0.2-0.4-0.4-0.6-0.5l1.3-1.8
			c0.4-0.6,0.3-1.4-0.3-1.8c-0.3-0.1-0.5-0.2-0.8-0.2h-3.9c-0.7,0-1.3,0.5-1.4,1.2c0,0.7,0.5,1.3,1.2,1.4c0.1,0,0.1,0,0.2,0h1.3
			l-0.9,1.2c-0.4,0.6-0.3,1.4,0.3,1.8c0.2,0.2,0.5,0.3,0.8,0.3c0.3,0,0.7,0.1,0.9,0.3c0.2,0.3,0.3,0.6,0.3,0.9c0,0.6-0.4,1-1,1
			c-0.4,0-0.8-0.2-0.9-0.6c-0.2-0.7-1-1-1.6-0.8c-0.7,0.2-1,1-0.8,1.6c0,0.1,0,0.1,0.1,0.2C-158.4-271.2-157.1-270.3-155.7-270.3z"
			/>
	</g>
</g>
<g id="criterio4">
	<path id="sign" class="st3" d="M40.5,24.1l5.4-4.9c0.3-0.3,0.3-0.7,0.1-1c0,0,0,0-0.1-0.1l-5.4-4.9H28.9V12c0-0.3-0.3-0.6-0.6-0.6
		s-0.6,0.3-0.6,0.6v1.2H17.1c-1.1,0-2,0.9-2,2v6.7c0,1.1,0.9,2,2,2h10.6v1.2h-10L12.3,30c-0.3,0.3-0.3,0.7-0.1,1c0,0,0,0,0.1,0.1
		l5.4,4.9h10v11c0,0.3,0.3,0.6,0.6,0.6s0.6-0.3,0.6-0.6V36.2h12.4c1.1,0,2-0.9,2-2v-6.8c0-1.1-0.9-2-2-2H28.9v-1.2L40.5,24.1z
		 M42.1,27.3v6.8c0,0.5-0.4,0.8-0.8,0.8H18.1l-4.7-4.2l4.7-4.2h23.2C41.7,26.5,42.1,26.9,42.1,27.3L42.1,27.3z M16.2,22v-6.7
		c0-0.5,0.4-0.8,0.8-0.8l0,0h23l4.7,4.2L40,22.9H17C16.6,22.9,16.2,22.5,16.2,22L16.2,22z"/>
</g>
<g id="criterio5" class="st0">
	<g id="credit-card_3_" transform="translate(205.499 291)" class="st1">
		<path id="Path_1339" class="st3" d="M-173.2-269.5c-0.4,0-0.8,0.3-0.8,0.8s0.3,0.8,0.8,0.8c0.4,0,0.8-0.3,0.8-0.8
			S-172.7-269.5-173.2-269.5L-173.2-269.5z"/>
		<path id="Path_1340" class="st3" d="M-177.7-254.8c0.3-0.3,0.3-0.8,0-1.1c-0.3-0.3-0.8-0.3-1.1,0c-0.3,0.3-0.3,0.8,0,1.1
			S-178-254.5-177.7-254.8z"/>
		<path id="Path_1341" class="st3" d="M-186.8-242.6c0.3,0.3,0.8,0.3,1.1,0l3.7-3.6c0.6-0.6,0.8-1.5,0.5-2.3l0.8-0.8
			c0.4-0.4,1-0.6,1.6-0.6h10c1.8,0,3.5-0.7,4.7-1.9c0.1-0.1-0.4,0.5,6.8-8.2c1.1-1.3,0.9-3.2-0.4-4.2s-3.1-0.9-4.2,0.3l-4.5,4.6
			c-0.6-0.7-1.4-1.1-2.3-1.1h-8.4c-1.2-0.5-2.5-0.8-3.8-0.8c-3.5-0.1-6.8,1.7-8.5,4.8c-0.7-0.1-1.5,0.1-2,0.6l-3.6,3.6
			c-0.3,0.3-0.3,0.8,0,1.1L-186.8-242.6z M-181.2-259.7c1.1,0,2.3,0.2,3.3,0.7c0.1,0,0.2,0.1,0.3,0.1h8.6c0.8,0,1.5,0.7,1.5,1.5
			c0,0.8-0.7,1.5-1.5,1.5h-6.2c-0.4,0-0.7,0.4-0.7,0.8c0,0.4,0.3,0.7,0.7,0.7h6.2c1.7,0,3-1.3,3-3c0-0.1,0-0.3,0-0.4
			c4.3-4.4,4.9-5.1,4.9-5.1c0.5-0.7,1.5-0.8,2.1-0.3c0.7,0.5,0.8,1.5,0.3,2.1l-0.1,0.1l-6.8,8.1c-1,0.9-2.3,1.5-3.7,1.5h-10
			c-1,0-1.9,0.4-2.6,1.1l-0.6,0.6l-5.9-5.9C-186.9-258.3-184.1-259.9-181.2-259.7z M-190.6-254.7c0.2-0.3,0.6-0.3,0.9-0.1
			c0.1,0.1,6.6,6.5,6.6,6.6c0.2,0.3,0.2,0.7-0.1,1l-3.1,3.1l-7.4-7.5L-190.6-254.7z"/>
		<path id="Path_1342" class="st3" d="M-183.7-265h18.1c1.2,0,2.3-1,2.3-2.3v-11.4c0-1.2-1-2.3-2.3-2.3h-18.1c-1.3,0-2.3,1-2.3,2.3
			v11.5C-186-266-185-265-183.7-265z M-164.9-275h-19.6v-1.5h19.6V-275z M-165.6-266.5h-18.1c-0.4,0-0.8-0.3-0.8-0.8v-6.2h19.6v6.2
			C-164.9-266.8-165.2-266.5-165.6-266.5L-165.6-266.5z M-183.7-279.5h18.1c0.4,0,0.8,0.3,0.8,0.8l0,0v0.7h-19.7v-0.7
			C-184.5-279.2-184.1-279.5-183.7-279.5z"/>
		<path id="Path_1343" class="st3" d="M-167.1-269.5h-3c-0.4,0-0.7,0.4-0.7,0.8c0,0.4,0.3,0.7,0.7,0.7h3c0.4,0,0.8-0.3,0.8-0.7
			C-166.3-269.2-166.7-269.5-167.1-269.5L-167.1-269.5z"/>
	</g>
</g>
<g id="criterio6" class="st0">
	<g id="credit-card_2_" transform="translate(206 289.817)" class="st1">
		<g id="Group_1192" transform="translate(0 0.011)">
			<g id="Group_1191" transform="translate(0 0)">
				<path id="Path_1236" class="st3" d="M-157.9-266.6l-12.4-12.4c-1.4-1.4-3.6-1.4-5,0l-19.7,19.7c-1.4,1.4-1.4,3.6,0,5l1.5,1.5
					l0,0l10.3,10.3h-1.4c-0.5,0-0.8,0.4-0.8,0.8c0,0.5,0.4,0.8,0.8,0.8l0,0h16.3c0.5,0,0.8-0.4,0.8-0.8c0-0.5-0.4-0.8-0.8-0.8h-8.7
					l19.1-19.1C-156.5-262.9-156.5-265.2-157.9-266.6z M-159-262.7l-19.7,19.7c-0.4,0.4-0.8,0.6-1.4,0.6l0,0c-0.5,0-1-0.2-1.4-0.6
					l-10.2-10.3l18.9-18.9c0.3-0.3,0.3-0.8,0-1.2c-0.3-0.3-0.8-0.3-1.2,0l0,0l-18.9,18.9l-1-1c-0.7-0.8-0.7-2,0-2.7l19.8-19.6
					c0.8-0.7,2-0.7,2.7,0l4.4,4.4l-18.9,18.9c-0.3,0.3-0.3,0.8,0,1.2c0.3,0.4,0.8,0.3,1.2,0l0,0l18.8-18.9l6.8,6.8
					C-158.3-264.7-158.3-263.4-159-262.7z"/>
				<path id="Path_1237" class="st3" d="M-175.9-256.4c-0.3-0.3-0.8-0.3-1.2,0l0,0l-6.4,6.4c-0.3,0.3-0.3,0.8,0,1.2
					c0.3,0.3,0.8,0.3,1.2,0l6.4-6.4C-175.6-255.6-175.6-256.1-175.9-256.4z"/>
				<path id="Path_1238" class="st3" d="M-178.5-250.3l-2.6,2.6c-0.3,0.3-0.3,0.8,0,1.2c0.3,0.3,0.8,0.3,1.2,0l2.6-2.6
					c0.3-0.3,0.3-0.8,0-1.2C-177.7-250.7-178.2-250.7-178.5-250.3z"/>
				<path id="Path_1239" class="st3" d="M-176.1-252.8l-0.3,0.3c-0.3,0.3-0.3,0.8,0,1.2c0.3,0.3,0.8,0.3,1.2,0l0,0l0.3-0.3
					c0.3-0.3,0.3-0.8,0-1.2C-175.3-253.1-175.8-253.1-176.1-252.8z"/>
				<path id="Path_1241" class="st3" d="M-171.5-273.9c0.2,0,0.4-0.1,0.6-0.2l0.3-0.3c0.3-0.3,0.3-0.8,0-1.2c-0.3-0.3-0.8-0.3-1.2,0
					l-0.3,0.3c-0.3,0.3-0.3,0.8,0,1.2C-171.9-274-171.7-273.9-171.5-273.9z"/>
				<path id="Path_1242" class="st3" d="M-187.8-252.6l-0.3,0.3c-0.3,0.3-0.3,0.8,0,1.2c0.3,0.3,0.8,0.3,1.2,0l0.3-0.3
					c0.3-0.3,0.3-0.8,0-1.2C-187-252.9-187.5-252.9-187.8-252.6z"/>
				<path id="Path_1243" class="st3" d="M-164.8-263.6c0.6,0.9,0.4,2.1-0.5,2.7c-0.9,0.6-2.1,0.4-2.7-0.5s-0.4-2.1,0.5-2.7
					c0.4-0.3,0.9-0.4,1.5-0.3C-165.5-264.3-165.1-264-164.8-263.6L-164.8-263.6"/>
				<path id="Path_1244" class="st3" d="M-166.8-267.5c-0.7,0.7-1.2,1.4-1.8,2.1c-1.3,2.2-1.7,4.5-0.7,5.7c0.6,0.8,1.7,0.9,2.6,0.4
					c-1.7,1.5-3.2,1.8-4.1,0.7c-0.9-1.1-0.5-4.1,1.4-6.6c0.3-0.3,0.6-0.7,0.9-1C-168.1-266.6-167.5-267-166.8-267.5"/>
				<path id="Path_1245" class="st3" d="M-171-264.5c0.8-0.4,1.7-0.8,2.6-1c2.5-0.6,4.9-0.1,5.6,1.1c0.5,0.8,0.3,2-0.5,2.6
					c2-1.1,2.7-2.5,2-3.7c-0.8-1.4-3.8-1.8-6.7-0.8c-0.4,0.2-0.8,0.3-1.2,0.5C-169.7-265.4-170.3-265-171-264.5"/>
			</g>
		</g>
	</g>
</g>
</svg>
