<?xml version="1.0" encoding="utf-8"?>
<!-- Generator: Adobe Illustrator 22.0.1, SVG Export Plug-In . SVG Version: 6.00 Build 0)  -->
<svg version="1.1" xmlns="http://www.w3.org/2000/svg" xmlns:xlink="http://www.w3.org/1999/xlink" x="0px" y="0px"
	 viewBox="0 0 58.8 58.8" style="enable-background:new 0 0 58.8 58.8;" xml:space="preserve">
<style type="text/css">
	.st0{display:none;}
	.st1{display:inline;}
	.st2{fill:#006341;fill-opacity:0;}
	.st3{fill:#006341;}
</style>
<g id="Capa_1" class="st0">
	<g id="Capa_2_1_" class="st1">
		<g id="Capa_3">
			<rect class="st2" width="58.8" height="58.8"/>
		</g>
		<g id="Capa_1-2">
			<g id="Group_1207">
				<g id="id-card">
					<path id="Path_1222" class="st3" d="M45,16.8H14.5c-1.4,0-2.5,1.1-2.5,2.5c0,0,0,0,0,0v21c0,1.4,1.1,2.5,2.5,2.5c0,0,0,0,0,0
						H45c1.4,0,2.5-1.1,2.5-2.5c0,0,0,0,0,0v-21C47.5,17.9,46.4,16.8,45,16.8C45,16.8,45,16.8,45,16.8z M13.8,21.5
						c0.3,0,0.6-0.3,0.6-0.6h2.4c0,0.3,0.2,0.6,0.6,0.6c0,0,0,0,0,0c0.3,0,0.6-0.2,0.6-0.4c0-0.1,0-0.1,0-0.2h2.4
						c0,0.3,0.3,0.6,0.6,0.6s0.6-0.3,0.6-0.6H24c0,0.3,0.3,0.6,0.6,0.6s0.6-0.3,0.6-0.6h2.4c0,0.3,0.3,0.6,0.6,0.6s0.6-0.3,0.6-0.6
						h2.4c0,0.3,0.3,0.6,0.6,0.6c0.3,0,0.6-0.3,0.6-0.6h2.4c0,0.3,0.3,0.6,0.6,0.6c0.3,0,0.6-0.3,0.6-0.6h2c0,0.3,0.3,0.6,0.6,0.6
						c0.3,0,0.6-0.3,0.6-0.6h2.4c0,0.3,0.3,0.6,0.6,0.6c0.3,0,0.6-0.3,0.6-0.6h2.4c0,0.3,0.2,0.6,0.6,0.6c0,0,0,0,0,0
						c0.3,0,0.6-0.2,0.6-0.4c0-0.1,0-0.1,0-0.2l0,0v3.6c0-0.3-0.3-0.6-0.6-0.6c-0.3,0-0.6,0.3-0.6,0.6h-2.4c0-0.3-0.3-0.6-0.6-0.6
						c-0.3,0-0.6,0.3-0.6,0.6h-2.4c0-0.3-0.3-0.6-0.6-0.6c-0.3,0-0.6,0.3-0.6,0.6h-2.4c0-0.3-0.3-0.6-0.6-0.6
						c-0.3,0-0.6,0.3-0.6,0.6H32c0-0.3-0.3-0.6-0.6-0.6s-0.6,0.3-0.6,0.6h-2.4c0-0.3-0.3-0.6-0.6-0.6s-0.6,0.3-0.6,0.6H25
						c0-0.3-0.3-0.6-0.6-0.6s-0.6,0.3-0.6,0.6h-2.3c0-0.3-0.3-0.6-0.6-0.6s-0.6,0.3-0.6,0.6h-2.4c0-0.3-0.3-0.6-0.6-0.6
						s-0.6,0.3-0.6,0.6h-2.3c0-0.3-0.3-0.6-0.6-0.6c-0.3,0-0.6,0.3-0.6,0.6c0,0,0,0,0,0v-3.6c0,0.3,0.2,0.6,0.4,0.6
						C13.7,21.5,13.7,21.5,13.8,21.5z M46.3,40.3c0,0.7-0.6,1.3-1.3,1.3H14.5c-0.7,0-1.3-0.6-1.3-1.3V25.7h33.1V40.3z M13.2,19.8
						v-0.5c0-0.7,0.6-1.3,1.3-1.3H45c0.7,0,1.3,0.6,1.3,1.3v0.5L13.2,19.8z"/>
					<path id="Path_1223" class="st3" d="M42,39.9h2.6v-13h-13v13H42z M35.1,38.7L35.1,38.7c0-0.2,0.1-0.5,0.3-0.6l1.5-0.8
						c0.3-0.1,0.5-0.5,0.5-0.8v-0.8L37,35.5c-0.6-0.3-1-0.8-1.1-1.4v-0.3l-0.3-0.1c-0.1,0-0.1-0.1-0.1-0.2v-0.4c0-0.1,0-0.1,0.1-0.2
						l0.3-0.1v-0.3c0-0.3,0.1-0.7,0.2-1c0.1-0.1,0.1-0.2,0.1-0.3c0.1-0.2,0.1-0.3,0.2-0.5c0.4,0.2,0.9,0.3,1.4,0.2H38
						c1.7,0,2.1,0.8,2.1,1.6v0.3l0.3,0.1c0.1,0,0.1,0.1,0.1,0.2v0.4c0,0.1,0,0.1-0.1,0.2l-0.3,0.1L40,34.1c-0.1,0.6-0.5,1.1-1.1,1.4
						l-0.4,0.2v0.8c0,0.3,0.2,0.6,0.5,0.8l1.5,0.8c0.2,0.1,0.4,0.3,0.4,0.6H35.1z M32.7,28h10.6v10.6h-1.2c0-0.7-0.4-1.3-1-1.7
						l-1.3-0.6c0.6-0.4,1-1,1.2-1.7c0.4-0.2,0.7-0.7,0.7-1.2V33c0-0.4-0.2-0.8-0.5-1c-0.2-1.1-1-2.3-3.3-2.3h-0.3
						c-0.4,0.1-0.8-0.1-1.1-0.3l-0.3-0.3c-0.2-0.3-0.6-0.3-0.9-0.1c0,0,0,0,0,0c-0.2,0.1-0.3,0.4-0.3,0.6c0,0.2,0,0.3,0.1,0.5
						c0,0.1,0,0.2,0.1,0.3c0,0.1,0,0.1-0.1,0.2c0,0.1-0.1,0.2-0.2,0.3c-0.1,0.3-0.2,0.7-0.3,1c-0.3,0.2-0.5,0.6-0.5,1v0.4
						c0,0.5,0.3,1,0.7,1.2c0.2,0.7,0.6,1.3,1.2,1.7l-1.3,0.6c-0.6,0.3-1,1-1,1.7h-1.2V28H32.7z"/>
					<path id="Path_1224" class="st3" d="M15.5,29.2h5.3c0.3,0,0.6-0.3,0.6-0.6S21.1,28,20.8,28h-5.3c-0.3,0-0.6,0.3-0.6,0.6
						C15,29,15.2,29.2,15.5,29.2z"/>
					<path id="Path_1225" class="st3" d="M23.2,29.2h5.3c0.3,0,0.6-0.3,0.6-0.6S28.8,28,28.5,28h-5.3c-0.3,0-0.6,0.2-0.6,0.6
						c0,0,0,0,0,0C22.6,28.9,22.9,29.2,23.2,29.2z"/>
					<path id="Path_1226" class="st3" d="M15.5,32.2h0.6c0.3,0,0.6-0.3,0.6-0.6S16.4,31,16.1,31h-0.6c-0.3,0-0.6,0.3-0.6,0.6
						C15,31.9,15.2,32.2,15.5,32.2z"/>
					<path id="Path_1227" class="st3" d="M19.7,32.2c0.3,0,0.6-0.3,0.6-0.6S20,31,19.7,31h-1.2c-0.3,0-0.6,0.3-0.6,0.6
						s0.3,0.6,0.6,0.6H19.7z"/>
					<path id="Path_1228" class="st3" d="M22.1,32.2h0.6c0.3,0,0.6-0.3,0.6-0.6S23,31,22.7,31h-0.6c-0.3,0-0.6,0.3-0.6,0.6
						S21.8,32.2,22.1,32.2L22.1,32.2z"/>
					<path id="Path_1229" class="st3" d="M26.2,32.2c0.3,0,0.6-0.3,0.6-0.6S26.5,31,26.2,31H25c-0.3,0-0.6,0.3-0.6,0.6
						s0.3,0.6,0.6,0.6H26.2z"/>
					<path id="Path_1230" class="st3" d="M28.1,31.2c-0.2,0.2-0.2,0.6,0,0.8c0.2,0.2,0.6,0.2,0.8,0c0.2-0.2,0.2-0.6,0-0.8
						c0,0,0,0,0,0C28.8,30.9,28.4,30.9,28.1,31.2z"/>
					<path id="Path_1231" class="st3" d="M18.9,34.2c-1.2,0.7-1.9,1.9-1.9,3.3l-0.7-0.6c-0.6-0.5-1.4,0.3-0.8,0.8l1.7,1.4
						c0.2,0.2,0.6,0.2,0.8,0c0-0.1,0.1-0.3,0.1-0.4c0-1.3,0.1-2.8,1.4-3.5C20.2,34.9,19.6,33.8,18.9,34.2z"/>
					<path id="Path_1232" class="st3" d="M26.7,36c-0.9-0.1-2.1,1.3-2.8,0.1c-0.1-0.3-0.5-0.4-0.7-0.2c0,0-0.1,0-0.1,0
						c-0.8,0.5-1.9,1.3-2.8,0.3c-0.5-0.6-1.4,0.3-0.8,0.8c1.1,1.2,2.5,0.8,3.8,0.2c0.3,0.3,0.7,0.5,1.1,0.6c0.5,0.1,2.4-0.7,2.5-0.5
						c0.4,0.6,1.5,0,1-0.6C27.7,36.3,27.2,36,26.7,36z"/>
					<circle id="Ellipse_368" class="st3" cx="36.8" cy="22.7" r="0.6"/>
					<circle id="Ellipse_369" class="st3" cx="40.4" cy="22.7" r="0.6"/>
					<circle id="Ellipse_370" class="st3" cx="26.2" cy="22.7" r="0.6"/>
					<circle id="Ellipse_371" class="st3" cx="29.7" cy="22.7" r="0.6"/>
					<circle id="Ellipse_372" class="st3" cx="33.3" cy="22.7" r="0.6"/>
					<circle id="Ellipse_373" class="st3" cx="43.9" cy="22.7" r="0.6"/>
					<circle id="Ellipse_374" class="st3" cx="22.6" cy="22.7" r="0.6"/>
					<circle id="Ellipse_375" class="st3" cx="15.5" cy="22.7" r="0.6"/>
					<circle id="Ellipse_376" class="st3" cx="19.1" cy="22.7" r="0.6"/>
				</g>
			</g>
		</g>
	</g>
</g>
<g id="Capa_2">
	<g id="calendar_1_" transform="translate(106 291.491)">
		<path id="Path_1326" class="st3" d="M-65.1-274.2L-65.1-274.2C-65.1-274.3-65.1-274.3-65.1-274.2c-0.1-0.1-0.1-0.2-0.2-0.2
			c0,0,0,0-0.1-0.1c0,0-0.1,0-0.1-0.1c-0.1,0-0.1-0.1-0.2-0.1c0,0,0,0-0.1,0h-2.8c-0.1-1.9-1-3.4-2.2-3.4s-2.1,1.4-2.2,3.4h-1
			c-0.1-1.9-1-3.4-2.2-3.4c-1.2,0-2.1,1.4-2.2,3.4h-1.2c-0.1-1.9-1-3.4-2.2-3.4c-1.2,0-2.1,1.5-2.2,3.5h-1.2c-0.1-2-1.1-3.4-2.2-3.4
			s-2.1,1.4-2.2,3.4h-2.8c-0.3,0-0.6,0.2-0.6,0.5v29c0,0.3,0.3,0.6,0.6,0.6h26.8c0.3,0,0.6-0.3,0.6-0.6v-1.7h5
			c0.3,0,0.6-0.3,0.6-0.6v-0.1L-65.1-274.2z M-70.7-276.9c0.4,0,1,0.9,1.1,2.2h-2.2C-71.6-276-71.1-276.9-70.7-276.9z M-76.2-276.9
			c0.4,0,1,0.9,1.1,2.2h-2.2C-77.2-276-76.6-276.9-76.2-276.9L-76.2-276.9z M-81.8-276.9c0.4,0,1,0.9,1.1,2.2h-2.2
			C-82.8-276-82.2-276.9-81.8-276.9L-81.8-276.9z M-87.4-276.9c0.4,0,1,0.9,1.1,2.2h-2.2C-88.4-276-87.8-276.9-87.4-276.9
			L-87.4-276.9z M-91.9-273.5h2.3c0.1,1.9,1,3.4,2.2,3.4c0.3,0,0.6-0.3,0.6-0.6c0-0.3-0.3-0.6-0.6-0.6c-0.4,0-1-0.9-1.1-2.2h4.5
			c0.1,1.9,1,3.4,2.2,3.4c0.3,0,0.6-0.3,0.6-0.6c0-0.3-0.3-0.6-0.6-0.6c-0.4,0-1-0.9-1.1-2.2h4.5c0.1,1.9,1,3.4,2.2,3.4
			c0.3,0,0.6-0.3,0.6-0.6c0-0.3-0.3-0.6-0.6-0.6c-0.4,0-1-0.9-1.1-2.2h4.5c0.1,1.9,1,3.4,2.2,3.4c0.3,0,0.6-0.3,0.6-0.6
			c0-0.3-0.3-0.6-0.6-0.6c-0.4,0-1-0.9-1.1-2.2h5.6v5.6h-25.8V-273.5z M-66.2-245.6h-25.7v-21.2h25.7
			C-66.2-266.8-66.2-245.6-66.2-245.6z M-65.1-247.8v-20.9l4.3,20.8L-65.1-247.8L-65.1-247.8z"/>
		<path id="Path_1327" class="st3" d="M-80.7-257.9h-2.2c-0.3,0-0.6,0.3-0.6,0.6v2.2c0,0.3,0.3,0.6,0.6,0.6h2.2
			c0.3,0,0.6-0.3,0.6-0.6v-2.2C-80.2-257.6-80.4-257.9-80.7-257.9z M-81.3-255.7h-1.1v-1.1h1.1V-255.7z"/>
		<path id="Path_1328" class="st3" d="M-75.1-257.9h-2.2c-0.3,0-0.6,0.2-0.6,0.6v2.2c0,0.3,0.3,0.6,0.6,0.6h2.2
			c0.3,0,0.6-0.3,0.6-0.6v-2.2C-74.6-257.6-74.8-257.9-75.1-257.9z M-75.7-255.7h-1.1v-1.1h1.1V-255.7z"/>
		<path id="Path_1329" class="st3" d="M-86.3-257.9h-2.2c-0.3,0-0.6,0.3-0.6,0.6v2.2c0,0.3,0.3,0.6,0.6,0.6h2.2
			c0.3,0,0.6-0.3,0.6-0.6v-2.2C-85.7-257.6-86-257.9-86.3-257.9z M-86.9-255.7H-88v-1.1h1.1V-255.7z"/>
		<path id="Path_1330" class="st3" d="M-80.7-252.3h-2.2c-0.3,0-0.6,0.3-0.6,0.6v2.2c0,0.3,0.2,0.6,0.6,0.6h2.2
			c0.3,0,0.6-0.3,0.6-0.6v-2.2C-80.2-252.1-80.4-252.3-80.7-252.3z M-81.3-250.1h-1.1v-1.1h1.1V-250.1z"/>
		<path id="Path_1331" class="st3" d="M-75.1-252.3h-2.2c-0.3,0-0.6,0.3-0.6,0.6v2.2c0,0.3,0.3,0.6,0.6,0.6h2.2
			c0.3,0,0.6-0.3,0.6-0.6v-2.2C-74.6-252.1-74.8-252.3-75.1-252.3z M-75.7-250.1h-1.1v-1.1h1.1V-250.1z"/>
		<path id="Path_1332" class="st3" d="M-86.3-252.3h-2.2c-0.3,0-0.6,0.3-0.6,0.6v2.2c0,0.3,0.2,0.6,0.6,0.6h2.2
			c0.3,0,0.6-0.3,0.6-0.6v-2.2C-85.7-252.1-86-252.3-86.3-252.3z M-86.9-250.1H-88v-1.1h1.1V-250.1z"/>
		<path id="Path_1333" class="st3" d="M-80.7-263.5h-2.2c-0.3,0-0.6,0.3-0.6,0.6v2.2c0,0.3,0.3,0.6,0.6,0.6h2.2
			c0.3,0,0.6-0.3,0.6-0.6v-2.2C-80.2-263.2-80.4-263.5-80.7-263.5z M-81.3-261.2h-1.1v-1.1h1.1V-261.2z"/>
		<path id="Path_1334" class="st3" d="M-75.1-263.5h-2.2c-0.3,0-0.6,0.2-0.6,0.6v2.2c0,0.3,0.3,0.6,0.6,0.6h2.2
			c0.3,0,0.6-0.3,0.6-0.6v-2.2C-74.6-263.2-74.8-263.5-75.1-263.5z M-75.7-261.2h-1.1v-1.1h1.1V-261.2z"/>
		<path id="Path_1335" class="st3" d="M-69.5-257.9h-2.2c-0.3,0-0.6,0.2-0.6,0.6v2.2c0,0.3,0.3,0.6,0.6,0.6h2.2
			c0.3,0,0.6-0.3,0.6-0.6v-2.2C-69-257.6-69.2-257.9-69.5-257.9z M-70.1-255.7h-1.1v-1.1h1.1V-255.7z"/>
		<path id="Path_1336" class="st3" d="M-69.5-252.3h-2.2c-0.3,0-0.6,0.3-0.6,0.6v2.2c0,0.3,0.3,0.6,0.6,0.6h2.2
			c0.3,0,0.6-0.3,0.6-0.6v-2.2C-69-252.1-69.2-252.3-69.5-252.3z M-70.1-250.1h-1.1v-1.1h1.1V-250.1z"/>
		<path id="Path_1337" class="st3" d="M-69.5-263.5h-2.2c-0.3,0-0.6,0.2-0.6,0.6v2.2c0,0.3,0.3,0.6,0.6,0.6h2.2
			c0.3,0,0.6-0.3,0.6-0.6v-2.2C-69-263.2-69.2-263.5-69.5-263.5z M-70.1-261.2h-1.1v-1.1h1.1V-261.2z"/>
		<path id="Path_1338" class="st3" d="M-86.3-263.5h-2.2c-0.3,0-0.6,0.3-0.6,0.6v2.2c0,0.3,0.3,0.6,0.6,0.6h2.2
			c0.3,0,0.6-0.3,0.6-0.6v-2.2C-85.7-263.2-86-263.5-86.3-263.5z M-86.9-261.2H-88v-1.1h1.1V-261.2z"/>
	</g>
</g>
</svg>
