<svg xmlns="http://www.w3.org/2000/svg" viewBox="0 0 58.81 58.81"><defs><style>.cls-1,.cls-2{fill:#006341;}.cls-1{opacity:0;}</style></defs><title>criterio4</title><g id="Capa_2" data-name="Capa 2"><g id="Capa_3" data-name="Capa 3"><rect class="cls-1" width="58.81" height="58.81"/></g><g id="Capa_1-2" data-name="Capa 1"><g id="Group_1210" data-name="Group 1210"><g id="recruitment"><g id="Group_1194" data-name="Group 1194"><g id="Group_1193" data-name="Group 1193"><path id="Path_1246" data-name="Path 1246" class="cls-2" d="M47.9,29.07a3.29,3.29,0,0,0,.6-1.9v-.6a3.37,3.37,0,0,0-3.4-3.4,3.69,3.69,0,0,0-2.4,1,11.86,11.86,0,0,0-22.5,0,3.44,3.44,0,0,0-4.8,0,3.49,3.49,0,0,0-1,2.4v.6a3.29,3.29,0,0,0,.6,1.9,5.14,5.14,0,0,0-4,5v1.6a.86.86,0,0,0,.8.8H16a.8.8,0,1,0,0-1.6H12.6v-.8a3.65,3.65,0,0,1,3.6-3.6H20a11.43,11.43,0,0,0,1.6,3.8l-9.1,9.1a2.9,2.9,0,0,0,0,4.2,3,3,0,0,0,4.2,0l5-5a.78.78,0,0,0-1.1-1.1h0l-5,5a1.42,1.42,0,1,1-2.1-1.9l.1-.1,9-9a11.85,11.85,0,0,0,20.6-5H47a3.65,3.65,0,0,1,3.6,3.6v.8H43.1a.8.8,0,0,0,0,1.6h8.3a.86.86,0,0,0,.8-.8h0v-1.6A5.53,5.53,0,0,0,47.9,29.07Zm-28.2-1.9a1.8,1.8,0,0,1-3.6,0v-.6a1.8,1.8,0,0,1,3.6,0h0Zm11.8,11a10.25,10.25,0,1,1,10.2-10.3A10.18,10.18,0,0,1,31.5,38.17Zm15.4-11a1.8,1.8,0,1,1-3.6,0v-.6a1.8,1.8,0,1,1,3.6,0Z"/></g></g><g id="Group_1196" data-name="Group 1196"><g id="Group_1195" data-name="Group 1195"><path id="Path_1247" data-name="Path 1247" class="cls-2" d="M31.45,19.28a8.63,8.63,0,0,0-5.9,14.9l.1.1a8.73,8.73,0,0,0,11.7,0l.1-.1a8.67,8.67,0,0,0,.4-12.2,9.09,9.09,0,0,0-6.4-2.7Zm0,15.7a7.1,7.1,0,0,1-4.4-1.5,5,5,0,0,1,6.7-2,4.81,4.81,0,0,1,2,2,6.44,6.44,0,0,1-4.3,1.5Zm-1.6-7.4v-.7a1.58,1.58,0,0,1,1.6-1.6,1.75,1.75,0,0,1,1.7,1.7h0v.6a1.75,1.75,0,0,1-1.7,1.7,1.67,1.67,0,0,1-1.6-1.7Zm7.2,4.7a6.09,6.09,0,0,0-3.1-2.6,3.49,3.49,0,0,0,.8-2.2v-.6a3.25,3.25,0,0,0-6.5-.1v.7a3.49,3.49,0,0,0,.8,2.2,6.52,6.52,0,0,0-3.1,2.6,7.05,7.05,0,1,1,11.1,0Z"/></g></g><g id="Group_1198" data-name="Group 1198"><g id="Group_1197" data-name="Group 1197"><path id="Path_1248" data-name="Path 1248" class="cls-2" d="M23.83,39.34a.78.78,0,1,0,0,1.1.76.76,0,0,0,.2-.5A1.42,1.42,0,0,0,23.83,39.34Z"/></g></g><g id="Group_1200" data-name="Group 1200"><g id="Group_1199" data-name="Group 1199"><path id="Path_1249" data-name="Path 1249" class="cls-2" d="M31.51,7.56a.86.86,0,0,0-.8.8h0v2.7a.8.8,0,1,0,1.6,0V8.36a.86.86,0,0,0-.8-.8Z"/></g></g><g id="Group_1202" data-name="Group 1202"><g id="Group_1201" data-name="Group 1201"><path id="Path_1250" data-name="Path 1250" class="cls-2" d="M32.11,13.13a.78.78,0,1,0,0,1.1.76.76,0,0,0,.2-.5A1.42,1.42,0,0,0,32.11,13.13Z"/></g></g><g id="Group_1204" data-name="Group 1204"><g id="Group_1203" data-name="Group 1203"><path id="Path_1251" data-name="Path 1251" class="cls-2" d="M38.33,10.67a.91.91,0,0,0-1.2,0h0l-1.4,1.4a.78.78,0,0,0,1.1,1.1l1.4-1.4a.71.71,0,0,0,.1-1.1Z"/></g></g><g id="Group_1206" data-name="Group 1206"><g id="Group_1205" data-name="Group 1205"><path id="Path_1252" data-name="Path 1252" class="cls-2" d="M27.26,12.17l-1.4-1.5a.78.78,0,1,0-1.1,1.1l1.4,1.4a.78.78,0,0,0,1.1,0A.67.67,0,0,0,27.26,12.17Z"/></g></g></g></g></g></g></svg>