<svg xmlns="http://www.w3.org/2000/svg" viewBox="0 0 58.81 58.81"><defs><style>.cls-1,.cls-2{fill:#006341;}.cls-1{opacity:0;}</style></defs><title>criterio2</title><g id="Capa_2" data-name="Capa 2"><g id="Capa_3" data-name="Capa 3"><rect class="cls-1" width="58.81" height="58.81"/></g><g id="Capa_1-2" data-name="Capa 1"><g id="Group_1208" data-name="Group 1208"><g id="credit-card"><g id="Group_1192" data-name="Group 1192"><g id="Group_1191" data-name="Group 1191"><path id="Path_1236" data-name="Path 1236" class="cls-2" d="M48.1,21.23,35.7,8.83a3.5,3.5,0,0,0-5,0L11,28.53a3.5,3.5,0,0,0,0,5L12.5,35h0l10.3,10.3H21.4a.8.8,0,1,0,0,1.6H37.7a.8.8,0,0,0,0-1.6H29l19.1-19.1A3.5,3.5,0,0,0,48.1,21.23ZM47,25.13,27.3,44.83a1.82,1.82,0,0,1-1.4.6h0a2,2,0,0,1-1.4-.6L14.3,34.53l18.9-18.9a.85.85,0,0,0-1.2-1.2h0L13.1,33.33l-1-1a2,2,0,0,1,0-2.7L31.9,10a2,2,0,0,1,2.7,0l4.4,4.4L20.1,33.33a.91.91,0,0,0,0,1.2c.3.4.8.3,1.2,0h0l18.8-18.9,6.8,6.8A1.9,1.9,0,0,1,47,25.13Z"/><path id="Path_1237" data-name="Path 1237" class="cls-2" d="M30.1,31.43a.91.91,0,0,0-1.2,0h0l-6.4,6.4A.85.85,0,1,0,23.7,39l6.4-6.4A.91.91,0,0,0,30.1,31.43Z"/><path id="Path_1238" data-name="Path 1238" class="cls-2" d="M27.5,37.53l-2.6,2.6a.85.85,0,1,0,1.2,1.2l2.6-2.6a.91.91,0,0,0,0-1.2A.75.75,0,0,0,27.5,37.53Z"/><path id="Path_1239" data-name="Path 1239" class="cls-2" d="M29.9,35l-.3.3a.85.85,0,1,0,1.2,1.2h0l.3-.3A.85.85,0,0,0,29.9,35Z"/><path id="Path_1241" data-name="Path 1241" class="cls-2" d="M34.5,13.93a1.42,1.42,0,0,0,.6-.2l.3-.3a.85.85,0,1,0-1.2-1.2l-.3.3a.91.91,0,0,0,0,1.2A1.42,1.42,0,0,0,34.5,13.93Z"/><path id="Path_1242" data-name="Path 1242" class="cls-2" d="M18.2,35.23l-.3.3a.85.85,0,0,0,1.2,1.2l.3-.3a.85.85,0,0,0-1.2-1.2Z"/><path id="Path_1243" data-name="Path 1243" class="cls-2" d="M41.2,24.23a1.94,1.94,0,1,1-2.7-.5,1.88,1.88,0,0,1,1.5-.3,2,2,0,0,1,1.2.8h0"/><path id="Path_1244" data-name="Path 1244" class="cls-2" d="M39.2,20.33c-.7.7-1.2,1.4-1.8,2.1-1.3,2.2-1.7,4.5-.7,5.7a2,2,0,0,0,2.6.4c-1.7,1.5-3.2,1.8-4.1.7s-.5-4.1,1.4-6.6c.3-.3.6-.7.9-1a14.71,14.71,0,0,1,1.7-1.3"/><path id="Path_1245" data-name="Path 1245" class="cls-2" d="M35,23.33a11.66,11.66,0,0,1,2.6-1c2.5-.6,4.9-.1,5.6,1.1a2,2,0,0,1-.5,2.6c2-1.1,2.7-2.5,2-3.7-.8-1.4-3.8-1.8-6.7-.8-.4.2-.8.3-1.2.5-.5.4-1.1.8-1.8,1.3"/></g></g></g></g></g></g></svg>