<svg xmlns="http://www.w3.org/2000/svg" viewBox="0 0 58.8 58.8"><defs><style>.cls-1,.cls-2{fill:#006341;}.cls-1{opacity:0;}</style></defs><title>icoConfigproducto</title><g id="Capa_2" data-name="Capa 2"><g id="Capa_7" data-name="Capa 7"><rect class="cls-1" width="58.8" height="58.8"/></g><g id="Capa_2-2" data-name="Capa 2"><path id="Path_1404" data-name="Path 1404" class="cls-2" d="M57,22H37.54L34.09,18.5a1,1,0,0,0-.64-.26H20.92L7.89,23H2.39a.87.87,0,0,0-.89.89h0V35.11a1,1,0,0,0,.89,1h16a.46.46,0,0,0,.38-.13L24,33.7v6.14a.87.87,0,0,0,.89.89h32a.88.88,0,0,0,.9-.89h0V23A.82.82,0,0,0,57,22ZM7.12,34.21H3.42V24.76h3.7Zm11.12,0H9V24.5L21.43,20H33.06L35,22H25a.87.87,0,0,0-.89.89h0v3.71H20.41v1.91h9.46a.88.88,0,0,1,.89.9h0v.89a.88.88,0,0,1-.89.9H25.14a.47.47,0,0,0-.38.12Zm7.67-.89h3.7a2.83,2.83,0,0,0,2.81-2.81v-1a2.83,2.83,0,0,0-2.81-2.81h-3.7V23.86h30V35.11H49.42a.88.88,0,0,0-.9.89h0v2.81H25.91Zm30,5.62H50.31V37h5.63Z"/><path id="Path_1405" data-name="Path 1405" class="cls-2" d="M46.6,31a2.2,2.2,0,1,0-2.2-2.2A2.16,2.16,0,0,0,46.6,31Zm0-2.9a.7.7,0,1,1-.7.7h0c-.1-.4.3-.7.7-.7Z"/><path id="Path_1406" data-name="Path 1406" class="cls-2" d="M32.6,26.59h2.9v1.5H32.6Z"/><path id="Path_1407" data-name="Path 1407" class="cls-2" d="M37,26.59h2.9v1.5H37Z"/><path id="Path_1408" data-name="Path 1408" class="cls-2" d="M41.4,26.59h1.5v1.5H41.4Z"/><path id="Path_1409" data-name="Path 1409" class="cls-2" d="M31.1,33.89h4.4v1.5H31.1Z"/><path id="Path_1410" data-name="Path 1410" class="cls-2" d="M37,33.89h1.5v1.5H37Z"/><path id="Path_1411" data-name="Path 1411" class="cls-2" d="M39.9,33.89h1.5v1.5H39.9Z"/></g></g></svg>