<svg xmlns="http://www.w3.org/2000/svg" viewBox="0 0 58.8 58.8"><defs><style>.cls-1,.cls-2{fill:#006341;}.cls-1{opacity:0;}</style></defs><title>icoDatoscomplementarios</title><g id="Capa_2" data-name="Capa 2"><g id="Capa_7" data-name="Capa 7"><rect class="cls-1" width="58.8" height="58.8"/><path id="Path_1511" data-name="Path 1511" class="cls-2" d="M48.59,27.25H46.18V23a1.91,1.91,0,0,0-1.89-1.9H42.05V19.33L41.7,19h0l-5.16-5.16L31,8.32H13.83v7.74H10.21A1.91,1.91,0,0,0,8.32,18V48.59h0A2,2,0,0,0,10,50.48H41.53a1.71,1.71,0,0,0,1.72-1.2l7.23-19.62v-.17a2.1,2.1,0,0,0-1.89-2.24Zm-4.3-4.82a.45.45,0,0,1,.51.52v4.3H42.05V22.43ZM31.55,10.73l8.09,8.09H31.55Zm-16.18-1h14.8V20.19h10.5v7.06H16.92a1.66,1.66,0,0,0-1.37,1.2l-.18.52ZM9.7,18a.45.45,0,0,1,.51-.52h3.62V32.93L9.7,44.46Zm32.18,30.8a.38.38,0,0,1-.35.34H10c-.17,0-.17,0-.34-.17a.58.58,0,0,1-.18-.34l4.13-11.53h0L16.92,29h0a.38.38,0,0,1,.35-.34H48.59c.34,0,.34.34.34.51Z"/><path id="Path_1512" data-name="Path 1512" class="cls-2" d="M19.5,20.19h7.06a.69.69,0,1,0,0-1.37H19.5a.73.73,0,0,0-.68.68A.63.63,0,0,0,19.5,20.19Z"/><path id="Path_1513" data-name="Path 1513" class="cls-2" d="M19.5,15.37h7.06a.69.69,0,1,0,0-1.37H19.5a.69.69,0,0,0,0,1.37Z"/><path id="Path_1514" data-name="Path 1514" class="cls-2" d="M19.5,25.18H36.37a.69.69,0,1,0,0-1.37H19.5a.63.63,0,0,0-.68.69.73.73,0,0,0,.68.68Z"/></g></g></svg>