<svg xmlns="http://www.w3.org/2000/svg" viewBox="0 0 58.8 58.8"><defs><style>.cls-1,.cls-2{fill:#006341;}.cls-1{opacity:0;}</style></defs><title>icoInfoeconomica</title><g id="Capa_2" data-name="Capa 2"><g id="Capa_7" data-name="Capa 7"><rect class="cls-1" width="58.8" height="58.8"/></g><g id="Capa_5" data-name="Capa 5"><g id="hand"><path id="Path_1310" data-name="Path 1310" class="cls-2" d="M28.6,35.89a.75.75,0,1,0-1.07,0h0A.75.75,0,0,0,28.6,35.89Z"/><path id="Path_1311" data-name="Path 1311" class="cls-2" d="M24.8,17.06a8.81,8.81,0,1,0,8.81-8.81h0A8.82,8.82,0,0,0,24.8,17.06Zm15.94,0a7.14,7.14,0,1,1-14.27,0,7.26,7.26,0,0,1,7.14-7.29h0a7.25,7.25,0,0,1,7.13,7.29Z"/><path id="Path_1312" data-name="Path 1312" class="cls-2" d="M19,48.65a.74.74,0,0,0,1.06,0l3.8-3.8a2.44,2.44,0,0,0,.6-2.43l.76-.76a2.33,2.33,0,0,1,1.67-.61H37.56a7.73,7.73,0,0,0,5-2s-.46.46,7.13-8.66a3.22,3.22,0,0,0-4.85-4.25L40.29,31a3.17,3.17,0,0,0-2.43-1.21H29.05a11.28,11.28,0,0,0-3.95-.76,9.93,9.93,0,0,0-9,5,2.69,2.69,0,0,0-2.12.61l-3.8,3.94a.75.75,0,0,0,0,1.07ZM25,30.73a8.88,8.88,0,0,1,3.49.76h9.27a1.6,1.6,0,1,1,.15,3.19H31.18a.76.76,0,1,0,0,1.51h6.53A3.11,3.11,0,0,0,40.9,33v-.45c4.55-4.71,5.16-5.32,5.16-5.32a1.62,1.62,0,0,1,2.43,2.13h0l-7.14,8.5a5.24,5.24,0,0,1-3.79,1.52H26.92a4.36,4.36,0,0,0-2.73,1.07l-.61.6-6.22-6.22A8.5,8.5,0,0,1,25,30.73Zm-9.87,5.16a.72.72,0,0,1,.91-.15c.15.15-.3-.31,6.83,6.83a.73.73,0,0,1,0,1.07l-3.34,3.18-7.74-7.89Z"/><path id="Path_1313" data-name="Path 1313" class="cls-2" d="M32.7,12.2v.91a2.57,2.57,0,0,0-1.52,3,2.33,2.33,0,0,0,2.27,1.52.76.76,0,1,1,0,1.51,1.56,1.56,0,0,1-1.06-.6.76.76,0,1,0-1.21.91,5.37,5.37,0,0,0,1.52,1.06v.91a.76.76,0,1,0,1.51,0h0v-.6a2.58,2.58,0,0,0,1.52-3,2.33,2.33,0,0,0-2.28-1.52.76.76,0,0,1,0-1.52,1.31,1.31,0,0,1,.92.46.74.74,0,0,0,1.06,0,.75.75,0,0,0,0-1.07h0a3.42,3.42,0,0,0-1.22-.76V12.2a.76.76,0,1,0-1.51,0Z"/></g></g></g></svg>