<svg xmlns="http://www.w3.org/2000/svg" viewBox="0 0 58.81 58.81"><defs><style>.cls-1,.cls-2{fill:#006341;}.cls-1{opacity:0;}</style></defs><title>criterio3</title><g id="Capa_2" data-name="Capa 2"><g id="Capa_3" data-name="Capa 3"><rect class="cls-1" width="58.81" height="58.81"/></g><g id="Capa_1-2" data-name="Capa 1"><g id="Group_1209" data-name="Group 1209"><g id="credit-card"><path id="Path_1233" data-name="Path 1233" class="cls-2" d="M50.1,25H40.2l.9-.9a.67.67,0,0,0,0-1h0L28,9.88a.67.67,0,0,0-1,0h0L7.2,29.58a.67.67,0,0,0,0,1h0l13.1,13.1a.76.76,0,0,0,.5.2H50a.68.68,0,0,0,.7-.7V25.78a.64.64,0,0,0-.6-.8Zm-10.5-1.4-1.5,1.5h-14l8.5-8.5ZM8.8,30.08l18.7-18.7,1.2,1.2L9.9,31.28Zm11.3,11.4-6.3-6.3,6.3-6.3Zm0-15.7V27l-7.3,7.3-1.8-2,18.6-18.6,1.9,1.9L22,25H20.8A.86.86,0,0,0,20.1,25.78Zm29.3,16.8H21.6V26.48H49.4Z"/><path id="Path_1234" data-name="Path 1234" class="cls-2" d="M23.8,36.68h4.4a.68.68,0,0,0,.7-.7v-2.9a.68.68,0,0,0-.7-.7H23.8a.68.68,0,0,0-.7.7V36a.68.68,0,0,0,.7.7Zm.7-2.9h2.9v1.5H24.5Z"/><rect id="Rectangle_1755" data-name="Rectangle 1755" class="cls-2" x="23.1" y="38.18" width="1.5" height="2.9"/><rect id="Rectangle_1756" data-name="Rectangle 1756" class="cls-2" x="26" y="38.18" width="1.5" height="2.9"/><rect id="Rectangle_1757" data-name="Rectangle 1757" class="cls-2" x="30.4" y="38.18" width="1.5" height="2.9"/><rect id="Rectangle_1758" data-name="Rectangle 1758" class="cls-2" x="33.3" y="38.18" width="1.5" height="2.9"/><rect id="Rectangle_1759" data-name="Rectangle 1759" class="cls-2" x="36.2" y="38.18" width="1.5" height="2.9"/><rect id="Rectangle_1760" data-name="Rectangle 1760" class="cls-2" x="40.6" y="38.18" width="1.5" height="2.9"/><rect id="Rectangle_1761" data-name="Rectangle 1761" class="cls-2" x="43.5" y="38.18" width="1.5" height="2.9"/><path id="Path_1235" data-name="Path 1235" class="cls-2" d="M39.9,33.78h7.3a.68.68,0,0,0,.7-.7v-4.4a.68.68,0,0,0-.7-.7H39.9a.68.68,0,0,0-.7.7v4.4C39.1,33.48,39.5,33.78,39.9,33.78Zm.7-4.4h5.8v2.9H40.6Z"/><rect id="Rectangle_1762" data-name="Rectangle 1762" class="cls-2" x="28.91" y="20.24" width="5.2" height="1.5" transform="translate(-5.61 28.43) rotate(-45)"/><rect id="Rectangle_1763" data-name="Rectangle 1763" class="cls-2" x="16.05" y="34.19" width="3.1" height="1.5" transform="translate(-19.55 22.68) rotate(-45)"/></g></g></g></g></svg>