<svg xmlns="http://www.w3.org/2000/svg" viewBox="0 0 58.81 58.81"><defs><style>.cls-1,.cls-2{fill:#006341;}.cls-1{opacity:0;}</style></defs><title>criterio1</title><g id="Capa_2" data-name="Capa 2"><g id="Capa_3" data-name="Capa 3"><rect class="cls-1" width="58.81" height="58.81"/></g><g id="Capa_1-2" data-name="Capa 1"><g id="Group_1207" data-name="Group 1207"><g id="id-card"><path id="Path_1222" data-name="Path 1222" class="cls-2" d="M45,16.79H14.5a2.48,2.48,0,0,0-2.5,2.5v21a2.48,2.48,0,0,0,2.5,2.5H45a2.48,2.48,0,0,0,2.5-2.5v-21A2.48,2.48,0,0,0,45,16.79Zm-31.2,4.7a.65.65,0,0,0,.6-.6h2.4a.58.58,0,0,0,.6.6.53.53,0,0,0,.6-.6h2.4a.6.6,0,0,0,1.2,0H24a.6.6,0,0,0,1.2,0h2.4a.6.6,0,0,0,1.2,0h2.4a.6.6,0,0,0,1.2,0h2.4a.6.6,0,0,0,1.2,0h2a.6.6,0,1,0,1.2,0h2.4a.6.6,0,0,0,1.2,0h2.4a.58.58,0,0,0,.6.6.53.53,0,0,0,.6-.6h0v3.6a.6.6,0,1,0-1.2,0H42.8a.6.6,0,1,0-1.2,0H39.2a.6.6,0,1,0-1.2,0H35.6a.6.6,0,0,0-1.2,0H32a.6.6,0,1,0-1.2,0H28.4a.6.6,0,1,0-1.2,0H25a.6.6,0,1,0-1.2,0H21.5a.6.6,0,0,0-1.2,0H17.9a.6.6,0,1,0-1.2,0H14.4a.6.6,0,1,0-1.2,0v-3.6A.53.53,0,0,0,13.8,21.49Zm32.5,18.8a1.32,1.32,0,0,1-1.3,1.3H14.5a1.32,1.32,0,0,1-1.3-1.3V25.69H46.3ZM13.2,19.79v-.5A1.32,1.32,0,0,1,14.5,18H45a1.32,1.32,0,0,1,1.3,1.3v.5Z"/><path id="Path_1223" data-name="Path 1223" class="cls-2" d="M42,39.89h2.6v-13h-13v13Zm-6.9-1.2h0a.71.71,0,0,1,.3-.6l1.5-.8a.89.89,0,0,0,.5-.8v-.8l-.4-.2a1.93,1.93,0,0,1-1.1-1.4v-.3l-.3-.1c-.1,0-.1-.1-.1-.2v-.4c0-.1,0-.1.1-.2l.3-.1v-.3a3.55,3.55,0,0,1,.2-1,.37.37,0,0,0,.1-.3c.1-.2.1-.3.2-.5a2.4,2.4,0,0,0,1.4.2H38c1.7,0,2.1.8,2.1,1.6v.3l.3.1c.1,0,.1.1.1.2v.4a.35.35,0,0,1-.1.2l-.3.1-.1.3a1.93,1.93,0,0,1-1.1,1.4l-.4.2v.8a1,1,0,0,0,.5.8l1.5.8a.68.68,0,0,1,.4.6ZM32.7,28H43.3v10.6H42.1a2.06,2.06,0,0,0-1-1.7l-1.3-.6a3,3,0,0,0,1.2-1.7,1.39,1.39,0,0,0,.7-1.2V33a1.23,1.23,0,0,0-.5-1c-.2-1.1-1-2.3-3.3-2.3h-.3a1.43,1.43,0,0,1-1.1-.3l-.3-.3a.63.63,0,0,0-.9-.1.71.71,0,0,0-.3.6.9.9,0,0,0,.1.5.37.37,0,0,0,.1.3.31.31,0,0,1-.1.2c0,.1-.1.2-.2.3-.1.3-.2.7-.3,1a1.39,1.39,0,0,0-.5,1v.4a1.31,1.31,0,0,0,.7,1.2,3,3,0,0,0,1.2,1.7l-1.3.6a1.94,1.94,0,0,0-1,1.7H32.5V28Z"/><path id="Path_1224" data-name="Path 1224" class="cls-2" d="M15.5,29.19h5.3a.6.6,0,0,0,0-1.2H15.5a.65.65,0,0,0-.6.6Q15,29.19,15.5,29.19Z"/><path id="Path_1225" data-name="Path 1225" class="cls-2" d="M23.2,29.19h5.3a.6.6,0,0,0,0-1.2H23.2a.58.58,0,0,0-.6.6.65.65,0,0,0,.6.6Z"/><path id="Path_1226" data-name="Path 1226" class="cls-2" d="M15.5,32.19h.6a.6.6,0,0,0,0-1.2h-.6a.65.65,0,0,0-.6.6C15,31.89,15.2,32.19,15.5,32.19Z"/><path id="Path_1227" data-name="Path 1227" class="cls-2" d="M19.7,32.19a.6.6,0,0,0,0-1.2H18.5a.6.6,0,0,0,0,1.2Z"/><path id="Path_1228" data-name="Path 1228" class="cls-2" d="M22.1,32.19h.6a.6.6,0,0,0,0-1.2h-.6a.6.6,0,0,0,0,1.2Z"/><path id="Path_1229" data-name="Path 1229" class="cls-2" d="M26.2,32.19a.6.6,0,0,0,0-1.2H25a.6.6,0,0,0,0,1.2Z"/><path id="Path_1230" data-name="Path 1230" class="cls-2" d="M28.1,31.19a.57.57,0,1,0,.8,0c-.1-.3-.5-.3-.8,0Z"/><path id="Path_1231" data-name="Path 1231" class="cls-2" d="M18.9,34.19a3.74,3.74,0,0,0-1.9,3.3l-.7-.6c-.6-.5-1.4.3-.8.8l1.7,1.4a.61.61,0,0,0,.8,0c0-.1.1-.3.1-.4,0-1.3.1-2.8,1.4-3.5C20.2,34.89,19.6,33.79,18.9,34.19Z"/><path id="Path_1232" data-name="Path 1232" class="cls-2" d="M26.7,36c-.9-.1-2.1,1.3-2.8.1a.54.54,0,0,0-.8-.2c-.8.5-1.9,1.3-2.8.3-.5-.6-1.4.3-.8.8,1.1,1.2,2.5.8,3.8.2a1.74,1.74,0,0,0,1.1.6c.5.1,2.4-.7,2.5-.5.4.6,1.5,0,1-.6A1.31,1.31,0,0,0,26.7,36Z"/><circle id="Ellipse_368" data-name="Ellipse 368" class="cls-2" cx="36.8" cy="22.69" r="0.6"/><circle id="Ellipse_369" data-name="Ellipse 369" class="cls-2" cx="40.4" cy="22.69" r="0.6"/><circle id="Ellipse_370" data-name="Ellipse 370" class="cls-2" cx="26.2" cy="22.69" r="0.6"/><circle id="Ellipse_371" data-name="Ellipse 371" class="cls-2" cx="29.7" cy="22.69" r="0.6"/><circle id="Ellipse_372" data-name="Ellipse 372" class="cls-2" cx="33.3" cy="22.69" r="0.6"/><circle id="Ellipse_373" data-name="Ellipse 373" class="cls-2" cx="43.9" cy="22.69" r="0.6"/><circle id="Ellipse_374" data-name="Ellipse 374" class="cls-2" cx="22.6" cy="22.69" r="0.6"/><circle id="Ellipse_375" data-name="Ellipse 375" class="cls-2" cx="15.5" cy="22.69" r="0.6"/><circle id="Ellipse_376" data-name="Ellipse 376" class="cls-2" cx="19.1" cy="22.69" r="0.6"/></g></g></g></g></svg>